<svg xmlns="http://www.w3.org/2000/svg" xmlns:xlink="http://www.w3.org/1999/xlink" contentStyleType="text/css" data-diagram-type="DESCRIPTION" height="477px" preserveAspectRatio="none" style="width:3843px;height:477px;background:#FFFFFF;" version="1.1" viewBox="0 0 3843 477" width="3843px" zoomAndPan="magnify"><?plantuml 1.2026.6?><defs/><g><g class="title" data-source-line="28"><text fill="#000000" font-family="sans-serif" font-size="14" font-weight="700" lengthAdjust="spacing" textLength="557.0947" x="1639.7276" y="22.9951">Diagramme de cas d'utilisation d&#233;taill&#233; &#8212; Entreprise &amp; Administrateur</text></g><!--cluster ENT--><g class="cluster" data-qualified-name="ENT" data-source-line="34" id="ent0004"><rect fill="#FAFAFF" height="122.56" rx="2.5" ry="2.5" style="stroke:#4F46E5;stroke-width:1;" width="2015" x="257.54" y="168.0869"/><text fill="#1E1B4B" font-family="sans-serif" font-size="14" font-weight="700" lengthAdjust="spacing" textLength="373.7002" x="1078.1899" y="183.082">Gestion des offres et candidatures (Entreprise)</text></g><!--cluster ADM--><g class="cluster" data-qualified-name="ADM" data-source-line="46" id="ent0014"><rect fill="#FAFAFF" height="281.48" rx="2.5" ry="2.5" style="stroke:#4F46E5;stroke-width:1;" width="1452" x="2344.54" y="171.7969"/><text fill="#1E1B4B" font-family="sans-serif" font-size="14" font-weight="700" lengthAdjust="spacing" textLength="117.4619" x="3011.809" y="186.792">Administration</text></g><!--entity UC11c--><g class="entity" data-qualified-name="ENT.UC11c" data-source-line="35" id="ent0005"><ellipse cx="355.5388" cy="238.8706" fill="#F5F7FF" rx="66.4188" ry="15.6838" style="stroke:#4F46E5;stroke-width:0.5;"/><text fill="#0F172A" font-family="sans-serif" font-size="13" lengthAdjust="spacing" textLength="101.7974" x="304.6401" y="242.937">Se d&#233;connecter</text></g><!--entity UC37--><g class="entity" data-qualified-name="ENT.UC37" data-source-line="36" id="ent0006"><ellipse cx="537.5405" cy="238.865" fill="#F5F7FF" rx="95.4405" ry="21.4881" style="stroke:#4F46E5;stroke-width:0.5;"/><text fill="#0F172A" font-family="sans-serif" font-size="13" lengthAdjust="spacing" textLength="168.689" x="453.1961" y="242.9314">Publier une offre de stage</text></g><!--entity UC38--><g class="entity" data-qualified-name="ENT.UC38" data-source-line="37" id="ent0007"><ellipse cx="751.5416" cy="238.8672" fill="#F5F7FF" rx="98.9516" ry="22.1903" style="stroke:#4F46E5;stroke-width:0.5;"/><text fill="#0F172A" font-family="sans-serif" font-size="13" lengthAdjust="spacing" textLength="176.3569" x="663.3631" y="242.9336">Modifier une offre de stage</text></g><!--entity UC39--><g class="entity" data-qualified-name="ENT.UC39" data-source-line="38" id="ent0008"><ellipse cx="976.5393" cy="238.8707" fill="#F5F7FF" rx="106.0693" ry="23.6139" style="stroke:#4F46E5;stroke-width:0.5;"/><text fill="#0F172A" font-family="sans-serif" font-size="13" lengthAdjust="spacing" textLength="191.75" x="880.6643" y="242.9371">Supprimer une offre de stage</text></g><!--entity UC40--><g class="entity" data-qualified-name="ENT.UC40" data-source-line="39" id="ent0009"><ellipse cx="1222.5441" cy="238.8637" fill="#F5F7FF" rx="120.0341" ry="26.4068" style="stroke:#4F46E5;stroke-width:0.5;"/><text fill="#0F172A" font-family="sans-serif" font-size="13" lengthAdjust="spacing" textLength="221.5015" x="1111.7934" y="242.9301">Consulter les candidatures re&#231;ues</text></g><!--entity UC41--><g class="entity" data-qualified-name="ENT.UC41" data-source-line="40" id="ent0010"><ellipse cx="1489.5389" cy="238.8647" fill="#F5F7FF" rx="126.8889" ry="27.7778" style="stroke:#4F46E5;stroke-width:0.5;"/><text fill="#0F172A" font-family="sans-serif" font-size="13" lengthAdjust="spacing" textLength="235.9424" x="1371.5677" y="242.9311">Changer le statut d'une candidature</text></g><!--entity UC42--><g class="entity" data-qualified-name="ENT.UC42" data-source-line="41" id="ent0011"><ellipse cx="1719.5435" cy="238.8716" fill="#F5F7FF" rx="83.3735" ry="19.0747" style="stroke:#4F46E5;stroke-width:0.5;"/><text fill="#0F172A" font-family="sans-serif" font-size="13" lengthAdjust="spacing" textLength="141.8257" x="1648.6306" y="242.938">Proposer un entretien</text></g><!--entity UC43--><g class="entity" data-qualified-name="ENT.UC43" data-source-line="42" id="ent0012"><ellipse cx="1919.5401" cy="238.8636" fill="#F5F7FF" rx="96.5801" ry="22.9067" style="stroke:#4F46E5;stroke-width:0.5;"/><text fill="#0F172A" font-family="sans-serif" font-size="13" lengthAdjust="spacing" textLength="142.2764" x="1848.4019" y="237.5629">Mettre &#224; jour le statut</text><text fill="#0F172A" font-family="sans-serif" font-size="13" lengthAdjust="spacing" textLength="92.0601" x="1873.51" y="252.6957">d'un entretien</text></g><!--entity UC44--><g class="entity" data-qualified-name="ENT.UC44" data-source-line="43" id="ent0013"><ellipse cx="2142.5389" cy="238.8687" fill="#F5F7FF" rx="106.3589" ry="23.6718" style="stroke:#4F46E5;stroke-width:0.5;"/><text fill="#0F172A" font-family="sans-serif" font-size="13" lengthAdjust="spacing" textLength="157.8853" x="2063.5963" y="237.1581">&#201;changer des messages</text><text fill="#0F172A" font-family="sans-serif" font-size="13" lengthAdjust="spacing" textLength="118.7266" x="2083.1757" y="252.2909">avec les &#233;tudiants</text></g><!--entity UC11a--><g class="entity" data-qualified-name="ADM.UC11a" data-source-line="47" id="ent0015"><ellipse cx="2446.5408" cy="238.863" fill="#F5F7FF" rx="69.7808" ry="16.3562" style="stroke:#4F46E5;stroke-width:0.5;"/><text fill="#0F172A" font-family="sans-serif" font-size="13" lengthAdjust="spacing" textLength="101.7974" x="2391.5098" y="242.9294">Se d&#233;connecter</text></g><!--entity UC45--><g class="entity" data-qualified-name="ADM.UC45" data-source-line="48" id="ent0016"><ellipse cx="2630.5376" cy="238.8653" fill="#F5F7FF" rx="94.4276" ry="24.0684" style="stroke:#4F46E5;stroke-width:0.5;"/><text fill="#0F172A" font-family="sans-serif" font-size="13" lengthAdjust="spacing" textLength="131.3394" x="2564.8679" y="235.8394">Consulter le tableau</text><text fill="#0F172A" font-family="sans-serif" font-size="13" lengthAdjust="spacing" textLength="122.8335" x="2569.1208" y="250.9723">de bord statistique</text></g><!--entity UC46--><g class="entity" data-qualified-name="ADM.UC46" data-source-line="49" id="ent0017"><ellipse cx="2823.5353" cy="238.8639" fill="#F5F7FF" rx="79.0353" ry="18.2071" style="stroke:#4F46E5;stroke-width:0.5;"/><text fill="#0F172A" font-family="sans-serif" font-size="13" lengthAdjust="spacing" textLength="131.9106" x="2757.58" y="242.9303">Cr&#233;er une formation</text></g><!--entity UC47--><g class="entity" data-qualified-name="ADM.UC47" data-source-line="50" id="ent0018"><ellipse cx="3572.5375" cy="409.5824" fill="#F5F7FF" rx="86.4275" ry="19.6855" style="stroke:#4F46E5;stroke-width:0.5;"/><text fill="#0F172A" font-family="sans-serif" font-size="13" lengthAdjust="spacing" textLength="148.7129" x="3498.181" y="413.6488">Modifier une formation</text></g><!--entity UC48--><g class="entity" data-qualified-name="ADM.UC48" data-source-line="51" id="ent0019"><ellipse cx="3015.5446" cy="238.8678" fill="#F5F7FF" rx="93.3546" ry="21.0709" style="stroke:#4F46E5;stroke-width:0.5;"/><text fill="#0F172A" font-family="sans-serif" font-size="13" lengthAdjust="spacing" textLength="164.106" x="2933.4916" y="242.9342">Supprimer une formation</text></g><!--entity UC49--><g class="entity" data-qualified-name="ADM.UC49" data-source-line="52" id="ent0020"><ellipse cx="3233.5359" cy="238.8679" fill="#F5F7FF" rx="105.0659" ry="23.781" style="stroke:#4F46E5;stroke-width:0.5;"/><text fill="#0F172A" font-family="sans-serif" font-size="13" lengthAdjust="spacing" textLength="129.9873" x="3168.5423" y="234.4776">Exporter la liste des</text><text fill="#0F172A" font-family="sans-serif" font-size="13" lengthAdjust="spacing" textLength="148.6494" x="3159.2112" y="249.6104">formations (CSV / PDF)</text></g><!--entity UC50--><g class="entity" data-qualified-name="ADM.UC50" data-source-line="53" id="ent0021"><ellipse cx="3459.5401" cy="238.8709" fill="#F5F7FF" rx="100.9701" ry="22.594" style="stroke:#4F46E5;stroke-width:0.5;"/><text fill="#0F172A" font-family="sans-serif" font-size="13" lengthAdjust="spacing" textLength="151.9883" x="3383.5459" y="238.1376">Accepter une demande</text><text fill="#0F172A" font-family="sans-serif" font-size="13" lengthAdjust="spacing" textLength="79.7075" x="3419.6863" y="253.2704">d'inscription</text></g><!--entity UC51--><g class="entity" data-qualified-name="ADM.UC51" data-source-line="54" id="ent0022"><ellipse cx="3676.5369" cy="238.8695" fill="#F5F7FF" rx="96.4569" ry="22.6327" style="stroke:#4F46E5;stroke-width:0.5;"/><text fill="#0F172A" font-family="sans-serif" font-size="13" lengthAdjust="spacing" textLength="144.0728" x="3604.5005" y="237.9948">Refuser une demande</text><text fill="#0F172A" font-family="sans-serif" font-size="13" lengthAdjust="spacing" textLength="79.7075" x="3636.6831" y="253.1276">d'inscription</text></g><!--entity Entreprise--><g class="entity" data-qualified-name="Entreprise" data-source-line="30" id="ent0001"><ellipse cx="1222.5374" cy="59.2969" fill="#E2E8F0" rx="16" ry="16" style="stroke:#334155;stroke-width:0.5;"/><path d="M1222.5374,79.2969 C1226.5374,79.2969 1229.5374,79.2969 1233.5374,75.2969 C1241.5374,75.2969 1249.5374,83.2969 1249.5374,91.2969 L1249.5374,95.2969 C1249.5374,99.2969 1245.5374,103.2969 1241.5374,103.2969 L1203.5374,103.2969 C1199.5374,103.2969 1195.5374,99.2969 1195.5374,95.2969 L1195.5374,91.2969 C1195.5374,83.2969 1203.5374,75.2969 1211.5374,75.2969 C1215.5374,79.2969 1218.5374,79.2969 1222.5374,79.2969" fill="#E2E8F0" style="stroke:#334155;stroke-width:0.5;"/><text fill="#000000" font-family="sans-serif" font-size="14" font-weight="700" lengthAdjust="spacing" textLength="82.1748" x="1181.45" y="116.792">Entreprise</text></g><!--entity Admin--><g class="entity" data-qualified-name="Admin" data-source-line="31" id="ent0002"><ellipse cx="3107.5422" cy="59.2969" fill="#E2E8F0" rx="16" ry="16" style="stroke:#334155;stroke-width:0.5;"/><path d="M3107.5422,79.2969 C3111.5422,79.2969 3114.5422,79.2969 3118.5422,75.2969 C3126.5422,75.2969 3134.5422,83.2969 3134.5422,91.2969 L3134.5422,95.2969 C3134.5422,99.2969 3130.5422,103.2969 3126.5422,103.2969 L3088.5422,103.2969 C3084.5422,103.2969 3080.5422,99.2969 3080.5422,95.2969 L3080.5422,91.2969 C3080.5422,83.2969 3088.5422,75.2969 3096.5422,75.2969 C3100.5422,79.2969 3103.5422,79.2969 3107.5422,79.2969" fill="#E2E8F0" style="stroke:#334155;stroke-width:0.5;"/><text fill="#000000" font-family="sans-serif" font-size="14" font-weight="700" lengthAdjust="spacing" textLength="119.4443" x="3047.82" y="116.792">Administrateur</text></g><!--entity ServiceEmail--><g class="entity" data-qualified-name="ServiceEmail" data-source-line="32" id="ent0003"><ellipse cx="1719.5457" cy="387.4438" fill="#E2E8F0" rx="16" ry="16" style="stroke:#334155;stroke-width:0.5;"/><path d="M1719.5457,407.4438 C1723.5457,407.4438 1726.5457,407.4438 1730.5457,403.4438 C1738.5457,403.4438 1746.5457,411.4438 1746.5457,419.4438 L1746.5457,423.4438 C1746.5457,427.4438 1742.5457,431.4438 1738.5457,431.4438 L1700.5457,431.4438 C1696.5457,431.4438 1692.5457,427.4438 1692.5457,423.4438 L1692.5457,419.4438 C1692.5457,411.4438 1700.5457,403.4438 1708.5457,403.4438 C1712.5457,407.4438 1715.5457,407.4438 1719.5457,407.4438" fill="#E2E8F0" style="stroke:#334155;stroke-width:0.5;"/><text fill="#000000" font-family="sans-serif" font-size="14" font-weight="700" lengthAdjust="spacing" textLength="106.2715" x="1666.41" y="444.9389">Service Email</text><text fill="#000000" font-family="sans-serif" font-size="14" font-weight="700" lengthAdjust="spacing" textLength="103.6807" x="1666.41" y="461.2357">(Nodemailer)</text><text fill="#000000" font-family="sans-serif" font-size="14" font-weight="700" lengthAdjust="spacing" textLength="74.6553" x="1682.2181" y="367.642">&#171;system&#187;</text></g><g class="entity" data-qualified-name="GMN44" data-source-line="82" id="ent0045"><path d="M6,381.8969 L6,437.2953 L525.0815,437.2953 L525.0815,391.8969 L515.0815,381.8969 L6,381.8969" fill="#FEFFDD" style="stroke:#181818;stroke-width:0.5;"/><path d="M515.0815,381.8969 L515.0815,391.8969 L525.0815,391.8969 L515.0815,381.8969" fill="#FEFFDD" style="stroke:#181818;stroke-width:1;"/><text fill="#000000" font-family="sans-serif" font-size="13" font-weight="700" lengthAdjust="spacing" textLength="159.9927" x="12" y="398.9638">Fid&#233;lit&#233; au code r&#233;el :</text><text fill="#000000" font-family="sans-serif" font-size="13" lengthAdjust="spacing" textLength="265.6875" x="176.125" y="398.9638">ces cas d'utilisation correspondent &#224; des</text><text fill="#000000" font-family="sans-serif" font-size="13" lengthAdjust="spacing" textLength="498.0815" x="12" y="414.0966">endpoints backend r&#233;els, prot&#233;g&#233;s par le r&#244;le "entreprise". Aucune interface</text><text fill="#000000" font-family="sans-serif" font-size="13" lengthAdjust="spacing" textLength="421.3955" x="12" y="429.2294">"/dashboard/company/*" n'existe encore c&#244;t&#233; frontend &#224; ce jour.</text></g><g class="entity" data-qualified-name="GMN47" data-source-line="88" id="ent0048"><path d="M1792.29,374.3269 L1792.29,444.8581 L2320.7851,444.8581 L2320.7851,384.3269 L2310.7851,374.3269 L1792.29,374.3269" fill="#FEFFDD" style="stroke:#181818;stroke-width:0.5;"/><path d="M2310.7851,374.3269 L2310.7851,384.3269 L2320.7851,384.3269 L2310.7851,374.3269" fill="#FEFFDD" style="stroke:#181818;stroke-width:1;"/><text fill="#000000" font-family="sans-serif" font-size="13" font-weight="700" lengthAdjust="spacing" textLength="159.9927" x="1798.29" y="391.3938">Fid&#233;lit&#233; au code r&#233;el :</text><text fill="#000000" font-family="sans-serif" font-size="13" lengthAdjust="spacing" textLength="301.8628" x="1962.415" y="391.3938">"Accepter/Refuser une demande" = endpoints</text><text fill="#000000" font-family="sans-serif" font-size="13" lengthAdjust="spacing" textLength="507.4951" x="1798.29" y="406.5266">admin r&#233;els et fonctionnels, mais sans page frontend d&#233;di&#233;e (placeholder UI).</text><text fill="#000000" font-family="sans-serif" font-size="13" lengthAdjust="spacing" textLength="456.7837" x="1798.29" y="421.6594">Les sections admin "Utilisateurs", "Inscriptions", "Statistiques" (onglet</text><text fill="#000000" font-family="sans-serif" font-size="13" lengthAdjust="spacing" textLength="445.5483" x="1798.29" y="436.7922">d&#233;di&#233;) et "Param&#232;tres" sont des coquilles vides sans logique m&#233;tier.</text></g><!--link Entreprise to UC11c--><g class="link" data-entity-1="ent0001" data-entity-2="ent0005" data-link-type="dependency" data-source-line="57" id="lnk23"><path d="M1181.44,82.1469 C1038.7,81.7069 565.85,85.4469 432.54,152.0869 C400.86,167.9269 378.7812,198.5968 366.5612,218.6568" fill="none" id="Entreprise-to-UC11c" style="stroke:#475569;stroke-width:1;"/><polygon fill="#475569" points="363.96,222.9269,372.0583,217.3217,366.5612,218.6568,365.2261,213.1597,363.96,222.9269" style="stroke:#475569;stroke-width:1;stroke-linejoin:miter;stroke-miterlimit:10;"/></g><!--link Entreprise to UC37--><g class="link" data-entity-1="ent0001" data-entity-2="ent0006" data-link-type="dependency" data-source-line="58" id="lnk24"><path d="M1181.35,84.4069 C1065.71,90.3869 740.18,110.5469 642.54,152.0869 C607.67,166.9269 578.5798,193.4077 559.2298,213.7077" fill="none" id="Entreprise-to-UC37" style="stroke:#475569;stroke-width:1;"/><polygon fill="#475569" points="555.78,217.3269,564.8851,213.5722,559.2298,213.7077,559.0943,208.0524,555.78,217.3269" style="stroke:#475569;stroke-width:1;stroke-linejoin:miter;stroke-miterlimit:10;"/></g><!--link Entreprise to UC38--><g class="link" data-entity-1="ent0001" data-entity-2="ent0007" data-link-type="dependency" data-source-line="59" id="lnk25"><path d="M1180.99,84.0869 C1111.62,88.2069 969.11,102.5069 860.54,152.0869 C825.93,167.8969 796.1111,193.3878 775.6111,213.2478" fill="none" id="Entreprise-to-UC38" style="stroke:#475569;stroke-width:1;"/><polygon fill="#475569" points="772.02,216.7269,781.2673,213.3375,775.6111,213.2478,775.7008,207.5917,772.02,216.7269" style="stroke:#475569;stroke-width:1;stroke-linejoin:miter;stroke-miterlimit:10;"/></g><!--link Entreprise to UC39--><g class="link" data-entity-1="ent0001" data-entity-2="ent0008" data-link-type="dependency" data-source-line="60" id="lnk26"><path d="M1180.98,102.7669 C1155.02,115.9269 1121.21,133.9469 1092.54,152.0869 C1061.01,172.0469 1030.8132,194.7498 1007.8032,212.8098" fill="none" id="Entreprise-to-UC39" style="stroke:#475569;stroke-width:1;"/><polygon fill="#475569" points="1003.87,215.8969,1013.4194,213.4867,1007.8032,212.8098,1008.4801,207.1936,1003.87,215.8969" style="stroke:#475569;stroke-width:1;stroke-linejoin:miter;stroke-miterlimit:10;"/></g><!--link Entreprise to UC40--><g class="link" data-entity-1="ent0001" data-entity-2="ent0009" data-link-type="dependency" data-source-line="61" id="lnk27"><path d="M1222.54,120.4669 C1222.54,149.0469 1222.54,182.4069 1222.54,207.3869" fill="none" id="Entreprise-to-UC40" style="stroke:#475569;stroke-width:1;"/><polygon fill="#475569" points="1222.54,212.3869,1226.54,203.3869,1222.54,207.3869,1218.54,203.3869,1222.54,212.3869" style="stroke:#475569;stroke-width:1;stroke-linejoin:miter;stroke-miterlimit:10;"/></g><!--link Entreprise to UC41--><g class="link" data-entity-1="ent0001" data-entity-2="ent0010" data-link-type="dependency" data-source-line="62" id="lnk28"><path d="M1263.92,103.6969 C1289.66,117.1469 1323.31,135.1369 1352.54,152.0869 C1385.92,171.4469 1418.7524,192.0557 1445.9024,209.4857" fill="none" id="Entreprise-to-UC41" style="stroke:#475569;stroke-width:1;"/><polygon fill="#475569" points="1450.11,212.1869,1444.6974,203.9587,1445.9024,209.4857,1440.3754,210.6908,1450.11,212.1869" style="stroke:#475569;stroke-width:1;stroke-linejoin:miter;stroke-miterlimit:10;"/></g><!--link Entreprise to UC42--><g class="link" data-entity-1="ent0001" data-entity-2="ent0011" data-link-type="dependency" data-source-line="63" id="lnk29"><path d="M1263.87,82.0069 C1339.73,82.8069 1504.6,91.9969 1626.54,152.0869 C1659.44,168.3069 1685.8091,196.0174 1702.3791,216.0074" fill="none" id="Entreprise-to-UC42" style="stroke:#475569;stroke-width:1;"/><polygon fill="#475569" points="1705.57,219.8569,1702.906,210.3752,1702.3791,216.0074,1696.7469,215.4805,1705.57,219.8569" style="stroke:#475569;stroke-width:1;stroke-linejoin:miter;stroke-miterlimit:10;"/></g><!--link Entreprise to UC43--><g class="link" data-entity-1="ent0001" data-entity-2="ent0012" data-link-type="dependency" data-source-line="64" id="lnk30"><path d="M1264,84.3669 C1381.21,90.2869 1712.89,110.3569 1812.54,152.0869 C1847.24,166.6269 1876.3581,192.3181 1896.2581,212.5981" fill="none" id="Entreprise-to-UC43" style="stroke:#475569;stroke-width:1;"/><polygon fill="#475569" points="1899.76,216.1669,1896.3116,206.9415,1896.2581,212.5981,1890.6015,212.5446,1899.76,216.1669" style="stroke:#475569;stroke-width:1;stroke-linejoin:miter;stroke-miterlimit:10;"/></g><!--link Entreprise to UC44--><g class="link" data-entity-1="ent0001" data-entity-2="ent0013" data-link-type="dependency" data-source-line="65" id="lnk31"><path d="M1263.93,83.0769 C1407.73,85.7169 1884.68,98.4369 2026.54,152.0869 C2063.32,165.9969 2094.9725,191.6869 2116.7725,212.1269" fill="none" id="Entreprise-to-UC44" style="stroke:#475569;stroke-width:1;"/><polygon fill="#475569" points="2120.42,215.5469,2116.5905,206.473,2116.7725,212.1269,2111.1186,212.309,2120.42,215.5469" style="stroke:#475569;stroke-width:1;stroke-linejoin:miter;stroke-miterlimit:10;"/></g><!--link Admin to UC11a--><g class="link" data-entity-1="ent0002" data-entity-2="ent0015" data-link-type="dependency" data-source-line="67" id="lnk32"><path d="M3047.36,84.4569 C2917.75,89.6269 2616.67,106.3369 2526.54,152.0869 C2494.77,168.2269 2471.7882,198.2033 2458.6982,218.2033" fill="none" id="Admin-to-UC11a" style="stroke:#475569;stroke-width:1;"/><polygon fill="#475569" points="2455.96,222.3869,2464.2356,217.0469,2458.6982,218.2033,2457.5418,212.6659,2455.96,222.3869" style="stroke:#475569;stroke-width:1;stroke-linejoin:miter;stroke-miterlimit:10;"/></g><!--link Admin to UC45--><g class="link" data-entity-1="ent0002" data-entity-2="ent0016" data-link-type="dependency" data-source-line="68" id="lnk33"><path d="M3047.57,84.4669 C2971.45,89.0369 2837.64,103.9169 2734.54,152.0869 C2701.89,167.3469 2674.3858,191.7218 2654.8658,211.5718" fill="none" id="Admin-to-UC45" style="stroke:#475569;stroke-width:1;"/><polygon fill="#475569" points="2651.36,215.1369,2660.5224,211.5244,2654.8658,211.5718,2654.8184,205.9152,2651.36,215.1369" style="stroke:#475569;stroke-width:1;stroke-linejoin:miter;stroke-miterlimit:10;"/></g><!--link Admin to UC46--><g class="link" data-entity-1="ent0002" data-entity-2="ent0017" data-link-type="dependency" data-source-line="69" id="lnk34"><path d="M3047.44,96.7769 C3007.3,108.0169 2954.4,126.1369 2912.54,152.0869 C2882.26,170.8669 2857.068,197.547 2840.818,216.667" fill="none" id="Admin-to-UC46" style="stroke:#475569;stroke-width:1;"/><polygon fill="#475569" points="2837.58,220.4769,2846.4563,216.2095,2840.818,216.667,2840.3605,211.0287,2837.58,220.4769" style="stroke:#475569;stroke-width:1;stroke-linejoin:miter;stroke-miterlimit:10;"/></g><!--link Admin to UC47--><g class="link" data-entity-1="ent0002" data-entity-2="ent0018" data-link-type="dependency" data-source-line="70" id="lnk35"><path d="M3167.49,84.1369 C3325.07,89.2069 3741.68,106.7969 3782.54,152.0869 C3828.55,203.0969 3819,248.4269 3782.54,306.6469 C3750.98,357.0569 3691.4214,381.8795 3642.2214,394.9895" fill="none" id="Admin-to-UC47" style="stroke:#475569;stroke-width:1;"/><polygon fill="#475569" points="3637.39,396.2769,3647.1165,397.8247,3642.2214,394.9895,3645.0566,390.0944,3637.39,396.2769" style="stroke:#475569;stroke-width:1;stroke-linejoin:miter;stroke-miterlimit:10;"/></g><!--link Admin to UC48--><g class="link" data-entity-1="ent0002" data-entity-2="ent0019" data-link-type="dependency" data-source-line="71" id="lnk36"><path d="M3085.04,120.4669 C3066.84,151.1969 3044.4974,188.9545 3029.9674,213.4945" fill="none" id="Admin-to-UC48" style="stroke:#475569;stroke-width:1;"/><polygon fill="#475569" points="3027.42,217.7969,3035.4473,212.0905,3029.9674,213.4945,3028.5634,208.0146,3027.42,217.7969" style="stroke:#475569;stroke-width:1;stroke-linejoin:miter;stroke-miterlimit:10;"/></g><!--link Admin to UC49--><g class="link" data-entity-1="ent0002" data-entity-2="ent0020" data-link-type="dependency" data-source-line="72" id="lnk37"><path d="M3138.36,120.4669 C3162.41,150.1169 3191.841,186.4331 3211.981,211.2731" fill="none" id="Admin-to-UC49" style="stroke:#475569;stroke-width:1;"/><polygon fill="#475569" points="3215.13,215.1569,3212.5689,205.6468,3211.981,211.2731,3206.3548,210.6852,3215.13,215.1569" style="stroke:#475569;stroke-width:1;stroke-linejoin:miter;stroke-miterlimit:10;"/></g><!--link Admin to UC50--><g class="link" data-entity-1="ent0002" data-entity-2="ent0021" data-link-type="dependency" data-source-line="73" id="lnk38"><path d="M3167.57,93.2269 C3217.8,103.7569 3290.38,122.5769 3348.54,152.0869 C3382.42,169.2869 3412.5312,194.0125 3433.7712,213.3325" fill="none" id="Admin-to-UC50" style="stroke:#475569;stroke-width:1;"/><polygon fill="#475569" points="3437.47,216.6969,3433.5038,207.6819,3433.7712,213.3325,3428.1207,213.6,3437.47,216.6969" style="stroke:#475569;stroke-width:1;stroke-linejoin:miter;stroke-miterlimit:10;"/></g><!--link Admin to UC51--><g class="link" data-entity-1="ent0002" data-entity-2="ent0022" data-link-type="dependency" data-source-line="74" id="lnk39"><path d="M3167.67,81.5969 C3258.74,82.4469 3435.33,92.5469 3570.54,152.0869 C3604.77,167.1669 3633.6257,192.7404 3653.3757,212.8404" fill="none" id="Admin-to-UC51" style="stroke:#475569;stroke-width:1;"/><polygon fill="#475569" points="3656.88,216.4069,3653.4253,207.1838,3653.3757,212.8404,3647.719,212.7907,3656.88,216.4069" style="stroke:#475569;stroke-width:1;stroke-linejoin:miter;stroke-miterlimit:10;"/></g><!--link UC41 to ServiceEmail--><g class="link" data-entity-1="ent0010" data-entity-2="ent0003" data-link-type="dependency" data-source-line="76" id="lnk40"><path d="M1524.97,265.8569 C1562.65,293.4969 1618.6484,334.5795 1662.0684,366.4295" fill="none" id="UC41-to-ServiceEmail" style="stroke:#475569;stroke-width:1;stroke-dasharray:7,7;"/><polygon fill="#475569" points="1666.1,369.3869,1661.2089,360.8383,1662.0684,366.4295,1656.4772,367.289,1666.1,369.3869" style="stroke:#475569;stroke-width:1;stroke-linejoin:miter;stroke-miterlimit:10;"/><text fill="#000000" font-family="sans-serif" font-size="13" lengthAdjust="spacing" textLength="63.0068" x="1612.44" y="327.7138">&#171;include&#187;</text></g><!--link UC42 to ServiceEmail--><g class="link" data-entity-1="ent0011" data-entity-2="ent0003" data-link-type="dependency" data-source-line="77" id="lnk41"><path d="M1719.54,258.2469 C1719.54,281.1369 1719.54,316.2569 1719.54,349.2969" fill="none" id="UC42-to-ServiceEmail" style="stroke:#475569;stroke-width:1;stroke-dasharray:7,7;"/><polygon fill="#475569" points="1719.54,354.2969,1723.54,345.2969,1719.54,349.2969,1715.54,345.2969,1719.54,354.2969" style="stroke:#475569;stroke-width:1;stroke-linejoin:miter;stroke-miterlimit:10;"/><text fill="#000000" font-family="sans-serif" font-size="13" lengthAdjust="spacing" textLength="63.0068" x="1720.54" y="327.7138">&#171;include&#187;</text></g><!--link UC43 to ServiceEmail--><g class="link" data-entity-1="ent0012" data-entity-2="ent0003" data-link-type="dependency" data-source-line="78" id="lnk42"><path d="M1893.72,261.3669 C1866.12,284.3669 1821.13,321.9569 1782.54,354.6469 C1779.46,357.2569 1780.1265,356.7066 1776.9365,359.4066" fill="none" id="UC43-to-ServiceEmail" style="stroke:#475569;stroke-width:1;stroke-dasharray:7,7;"/><polygon fill="#475569" points="1773.12,362.6369,1782.5739,359.8756,1776.9365,359.4066,1777.4055,353.7692,1773.12,362.6369" style="stroke:#475569;stroke-width:1;stroke-linejoin:miter;stroke-miterlimit:10;"/><text fill="#000000" font-family="sans-serif" font-size="13" lengthAdjust="spacing" textLength="63.0068" x="1828.63" y="327.7138">&#171;include&#187;</text></g><!--link UC49 to UC47--><g class="link" data-entity-1="ent0020" data-entity-2="ent0018" data-link-type="dependency" data-source-line="79" id="lnk43"><path d="M3269.03,261.6969 C3291.51,275.2169 3321.36,292.6169 3348.54,306.6469 C3411.56,339.1869 3482.4415,370.4238 3527.7215,389.7538" fill="none" id="UC49-to-UC47" style="stroke:#475569;stroke-width:1;stroke-dasharray:7,7;"/><polygon fill="#475569" points="3532.32,391.7169,3525.6132,384.5045,3527.7215,389.7538,3522.4722,391.8621,3532.32,391.7169" style="stroke:#475569;stroke-width:1;stroke-linejoin:miter;stroke-miterlimit:10;"/><text fill="#000000" font-family="sans-serif" font-size="13" lengthAdjust="spacing" textLength="61.1851" x="3397.83" y="327.7138">&#171;extend&#187;</text></g><!--link ENT to GMN44--><g class="link" data-entity-1="ent0004" data-entity-2="ent0045" data-link-type="association" data-source-line="82" id="lnk46"><path d="M265.54,291.2822 C265.54,291.5058 265.54,291.7298 265.54,291.9541 C265.54,292.8516 265.54,293.7547 265.54,294.6631 C265.54,323.7319 265.54,358.1619 265.54,381.5069" fill="none" id="ENT-GMN44" style="stroke:#475569;stroke-width:1;stroke-dasharray:7,7;"/></g><!--link ADM to GMN47--><g class="link" data-entity-1="ent0014" data-entity-2="ent0048" data-link-type="association" data-source-line="88" id="lnk49"><path d="M2344.5361,246.4783 C2344.4584,246.5416 2344.3802,246.6052 2344.3016,246.6693 C2344.1442,246.7974 2343.9849,246.927 2343.8236,247.0581 C2343.5011,247.3204 2343.1706,247.5887 2342.8325,247.8628 C2337.4225,252.2494 2330.045,258.1356 2321.46,264.7369 C2304.29,277.9394 2282.29,294.0019 2261.54,306.6469 C2220.81,331.4669 2173.22,355.4169 2134.15,373.8569" fill="none" id="ADM-GMN47" style="stroke:#475569;stroke-width:1;stroke-dasharray:7,7;"/></g><?plantuml-src ZLPDRkCs5Dxh50ykq4cA6JkAxJWkKWDEOXS3T0P1qtIL3KqzEsmaKaDI-MbHeDlkUu3kskpd1hv9Jz97IhR4aHCaMIJl_tk_bBaLCcUQPR1W_7QbLI6JCvKg3L_D_KzajXgCMwKlxMEAmExHg0mRmfpCsGfBiKPkcLobJGLpmn9rB-GAbYmrJKbXa3E3y5i4SDf2CPoF20L9b4vGLzp1V70q6n9tghMwtp17m-7Hc9Xp9Mt5EvZ7eyDfnRiKloB4_UZtBvCgGpS3zFk3U3ZS1MXsE3kU7smy-dGNAaq2fzlysuwtoDkPJkbttdOSv1FFujF1QH1iHmbgeLG96ipXyA09ZybRnnmCeyWAIu7E1LkH94D84AWPaBmfh4Y5OLOe2SdwoJAHfkid-E-Fls0chSPS2-hPrp1DCY65iPfPB7GKbGNjr3eT87yrkL48xRoIPstabwZl14UOPHJvMkvzf4pSlwZtlN8bzs8uEJ6Fnc8scKHHNVpEzsXA_6X0BPUQ_g2b_6GY4cOBH-_Lo4g_iuy_-QvjffA0kFovaf8SOudqwYoEULFfebYa0ZKK4ij8hf36qaPK-lrHK_s3IiJoPVtZ04EH4yJiHODnq-1CILEa11TIIZB8MEFwdm9DPJOu2Cnkg7BUoFcsXNM38B7fO6CN1-bhbIlZuG6wWbg1SgDv66IEbiIm_Xj-KKKZqBLqaTh6_QRn-azU0NGTpT0OojzSItQ7t2TASreaWacxJMz0kz8SYSROqMIKOtV-uSME0snxpfwhCLYsI94Lb8PRMvtuj2YE-5HiIpOChFNwgUhdKkciXaEAHy_EIajrzFoOj7I3aPezv4fxy0neqQqRA2hbreXMu-poP-Z1nVbyV-CXcB4fvvZRAfXRJihTjL58mxN86v67mP3zYCl2lCeiTirhN9jtxoRLwhMOj5zjtl4EthZDenrey-8TlCCTlFuEtY2A_9nj0RE0fa48oAEG78NaSKYE0v8g6v1n53diqErEmWlvBTr88NbQ94X7qkNo2ft-AtJ6NiV1zZ9yi2WJTuUbicuLh5KPNIntLsa8JXQJkQ3bIeMbnuGLmEciWri5SdtIMqo0-tlrvGl4bQRRbIkQ5MdTzQ1X9NSKAbU2rjr_lX1LkZ9l8TUA8gpMJuO-JVo6wlLdTm2mVfYwC2sucqBoW7h9E9BBJYzXvcQXc4vwN6Kvau-zRpeWt-23tnAKX8Kkulgpos2fwMrsSGaIFLRkfdKZHxliMpMWI_Eg6cnNgxTZLphmNPqtkME-_sNUxdbRAibTpQIl0pNDW67IbM65DLwAdmYoWRqyfSHlw4k3mbozt--Ion-e1xIjvHae_NUkgcxGOsqwRw7plbvNJr_MzuwExvvovzQIhohGleFMkN3V7-j_gGEaOmYAF-HSVIhewuB-knEEzd1JjNA-8AERJjUlKTN_0G00?></g></svg>