<svg xmlns="http://www.w3.org/2000/svg" xmlns:xlink="http://www.w3.org/1999/xlink" contentStyleType="text/css" data-diagram-type="DESCRIPTION" height="465px" preserveAspectRatio="none" style="width:4385px;height:465px;background:#FFFFFF;" version="1.1" viewBox="0 0 4385 465" width="4385px" zoomAndPan="magnify"><?plantuml 1.2026.6?><defs/><g><g class="title" data-source-line="28"><text fill="#000000" font-family="sans-serif" font-size="14" font-weight="700" lengthAdjust="spacing" textLength="400.668" x="1989.1608" y="22.9951">Diagramme de cas d'utilisation d&#233;taill&#233; &#8212; &#201;tudiant</text></g><!--cluster R1--><g class="cluster" data-qualified-name="R1" data-source-line="33" id="ent0003"><rect fill="#FAFAFF" height="85.22" rx="2.5" ry="2.5" style="stroke:#4F46E5;stroke-width:1;" width="471" x="35.25" y="199.2569"/><text fill="#1E1B4B" font-family="sans-serif" font-size="14" font-weight="700" lengthAdjust="spacing" textLength="42.4717" x="249.5142" y="214.252">Profil</text></g><!--cluster R2--><g class="cluster" data-qualified-name="R2" data-source-line="39" id="ent0007"><rect fill="#FAFAFF" height="93.66" rx="2.5" ry="2.5" style="stroke:#4F46E5;stroke-width:1;" width="389" x="2097.25" y="195.0369"/><text fill="#1E1B4B" font-family="sans-serif" font-size="14" font-weight="700" lengthAdjust="spacing" textLength="89.5303" x="2246.9849" y="210.032">Formations</text></g><!--cluster R3--><g class="cluster" data-qualified-name="R3" data-source-line="44" id="ent0010"><rect fill="#FAFAFF" height="237.66" rx="2.5" ry="2.5" style="stroke:#4F46E5;stroke-width:1;" width="545" x="2510.25" y="196.8869"/><text fill="#1E1B4B" font-family="sans-serif" font-size="14" font-weight="700" lengthAdjust="spacing" textLength="174.166" x="2695.667" y="211.882">Offres &amp; candidatures</text></g><!--cluster R4--><g class="cluster" data-qualified-name="R4" data-source-line="51" id="ent0015"><rect fill="#FAFAFF" height="238.43" rx="2.5" ry="2.5" style="stroke:#4F46E5;stroke-width:1;" width="540" x="3079.25" y="48.6469"/><text fill="#1E1B4B" font-family="sans-serif" font-size="14" font-weight="700" lengthAdjust="spacing" textLength="81.9082" x="3308.2959" y="63.642">Entretiens</text></g><!--cluster R5--><g class="cluster" data-qualified-name="R5" data-source-line="58" id="ent0020"><rect fill="#FAFAFF" height="239.9" rx="2.5" ry="2.5" style="stroke:#4F46E5;stroke-width:1;" width="761" x="530.25" y="194.5869"/><text fill="#1E1B4B" font-family="sans-serif" font-size="14" font-weight="700" lengthAdjust="spacing" textLength="122.623" x="849.4385" y="209.582">Communication</text></g><!--cluster R6--><g class="cluster" data-qualified-name="R6" data-source-line="66" id="ent0026"><rect fill="#FAFAFF" height="388.37" rx="2.5" ry="2.5" style="stroke:#4F46E5;stroke-width:1;" width="624" x="3643.25" y="44.2969"/><text fill="#1E1B4B" font-family="sans-serif" font-size="14" font-weight="700" lengthAdjust="spacing" textLength="153.9932" x="3878.2534" y="59.292">Assistant IA (SAGE)</text></g><!--cluster R7--><g class="cluster" data-qualified-name="R7" data-source-line="74" id="ent0032"><rect fill="#FAFAFF" height="95.66" rx="2.5" ry="2.5" style="stroke:#4F46E5;stroke-width:1;" width="730" x="1343.25" y="194.0369"/><text fill="#1E1B4B" font-family="sans-serif" font-size="14" font-weight="700" lengthAdjust="spacing" textLength="173.9746" x="1621.2627" y="209.032">Compte &amp; param&#232;tres</text></g><!--entity UC12--><g class="entity" data-qualified-name="R1.UC12" data-source-line="34" id="ent0004"><ellipse cx="416.2451" cy="251.3659" fill="#F5F7FF" rx="73.5451" ry="17.109" style="stroke:#4F46E5;stroke-width:0.5;"/><text fill="#0F172A" font-family="sans-serif" font-size="12" lengthAdjust="spacing" textLength="122.5898" x="354.9501" y="254.8503">Consulter mon profil</text></g><!--entity UC13--><g class="entity" data-qualified-name="R1.UC13" data-source-line="35" id="ent0005"><ellipse cx="121.2549" cy="251.3698" fill="#F5F7FF" rx="69.6649" ry="16.333" style="stroke:#4F46E5;stroke-width:0.5;"/><text fill="#0F172A" font-family="sans-serif" font-size="12" lengthAdjust="spacing" textLength="113.5723" x="64.4687" y="254.8542">Modifier mon profil</text></g><!--entity UC14--><g class="entity" data-qualified-name="R1.UC14" data-source-line="36" id="ent0006"><ellipse cx="267.2542" cy="251.3717" fill="#F5F7FF" rx="57.9242" ry="13.9848" style="stroke:#4F46E5;stroke-width:0.5;"/><text fill="#0F172A" font-family="sans-serif" font-size="12" lengthAdjust="spacing" textLength="84.7852" x="224.8616" y="254.8561">G&#233;rer mon CV</text></g><!--entity UC15--><g class="entity" data-qualified-name="R2.UC15" data-source-line="40" id="ent0008"><ellipse cx="2193.253" cy="251.3632" fill="#F5F7FF" rx="79.603" ry="21.3263" style="stroke:#4F46E5;stroke-width:0.5;"/><text fill="#0F172A" font-family="sans-serif" font-size="12" lengthAdjust="spacing" textLength="116.7773" x="2134.8643" y="249.9691">Faire une demande</text><text fill="#0F172A" font-family="sans-serif" font-size="12" lengthAdjust="spacing" textLength="73.5762" x="2156.4649" y="263.9378">d'inscription</text></g><!--entity UC16--><g class="entity" data-qualified-name="R2.UC16" data-source-line="41" id="ent0009"><ellipse cx="2380.2507" cy="251.3708" fill="#F5F7FF" rx="89.7707" ry="21.114" style="stroke:#4F46E5;stroke-width:0.5;"/><text fill="#0F172A" font-family="sans-serif" font-size="12" lengthAdjust="spacing" textLength="133.8281" x="2313.3367" y="250.3075">Suivre mes demandes</text><text fill="#0F172A" font-family="sans-serif" font-size="12" lengthAdjust="spacing" textLength="73.5762" x="2343.4626" y="264.2762">d'inscription</text></g><!--entity UC17--><g class="entity" data-qualified-name="R3.UC17" data-source-line="45" id="ent0011"><ellipse cx="2701.2477" cy="397.64" fill="#F5F7FF" rx="80.7477" ry="20.9031" style="stroke:#4F46E5;stroke-width:0.5;"/><text fill="#0F172A" font-family="sans-serif" font-size="12" lengthAdjust="spacing" textLength="121.3242" x="2640.5856" y="396.9107">Rechercher et filtrer</text><text fill="#0F172A" font-family="sans-serif" font-size="12" lengthAdjust="spacing" textLength="55.1426" x="2673.6765" y="410.8795">les offres</text></g><!--entity UC18--><g class="entity" data-qualified-name="R3.UC18" data-source-line="46" id="ent0012"><ellipse cx="2796.2528" cy="251.3674" fill="#F5F7FF" rx="81.2528" ry="18.6506" style="stroke:#4F46E5;stroke-width:0.5;"/><text fill="#0F172A" font-family="sans-serif" font-size="12" lengthAdjust="spacing" textLength="140.0566" x="2726.2245" y="254.8518">Sauvegarder en favoris</text></g><!--entity UC19--><g class="entity" data-qualified-name="R3.UC19" data-source-line="47" id="ent0013"><ellipse cx="2967.2549" cy="251.3639" fill="#F5F7FF" rx="71.6849" ry="16.737" style="stroke:#4F46E5;stroke-width:0.5;"/><text fill="#0F172A" font-family="sans-serif" font-size="12" lengthAdjust="spacing" textLength="118.2891" x="2908.1104" y="254.8482">Postuler &#224; une offre</text></g><!--entity UC20--><g class="entity" data-qualified-name="R3.UC20" data-source-line="48" id="ent0014"><ellipse cx="2611.2478" cy="251.3684" fill="#F5F7FF" rx="85.4078" ry="19.4816" style="stroke:#4F46E5;stroke-width:0.5;"/><text fill="#0F172A" font-family="sans-serif" font-size="12" lengthAdjust="spacing" textLength="149.2852" x="2536.6053" y="254.8528">Suivre mes candidatures</text></g><!--entity UC21--><g class="entity" data-qualified-name="R4.UC21" data-source-line="52" id="ent0016"><ellipse cx="3243.25" cy="251.3649" fill="#F5F7FF" rx="86.54" ry="19.708" style="stroke:#4F46E5;stroke-width:0.5;"/><text fill="#0F172A" font-family="sans-serif" font-size="12" lengthAdjust="spacing" textLength="151.7813" x="3167.3593" y="254.8492">Consulter mes entretiens</text></g><!--entity UC22--><g class="entity" data-qualified-name="R4.UC22" data-source-line="53" id="ent0017"><ellipse cx="3175.2507" cy="102.387" fill="#F5F7FF" rx="80.2007" ry="18.4401" style="stroke:#4F46E5;stroke-width:0.5;"/><text fill="#0F172A" font-family="sans-serif" font-size="12" lengthAdjust="spacing" textLength="137.7012" x="3106.4001" y="105.8714">Confirmer un entretien</text></g><!--entity UC23--><g class="entity" data-qualified-name="R4.UC23" data-source-line="54" id="ent0018"><ellipse cx="3347.2468" cy="102.3882" fill="#F5F7FF" rx="74.1568" ry="17.2314" style="stroke:#4F46E5;stroke-width:0.5;"/><text fill="#0F172A" font-family="sans-serif" font-size="12" lengthAdjust="spacing" textLength="123.9961" x="3285.2488" y="105.8726">Refuser un entretien</text></g><!--entity UC24--><g class="entity" data-qualified-name="R4.UC24" data-source-line="55" id="ent0019"><ellipse cx="3521.2508" cy="102.385" fill="#F5F7FF" rx="81.7408" ry="18.7482" style="stroke:#4F46E5;stroke-width:0.5;"/><text fill="#0F172A" font-family="sans-serif" font-size="12" lengthAdjust="spacing" textLength="141.1465" x="3450.6776" y="105.8694">Consulter les modalit&#233;s</text></g><!--entity UC25--><g class="entity" data-qualified-name="R5.UC25" data-source-line="59" id="ent0021"><ellipse cx="811.2459" cy="251.3641" fill="#F5F7FF" rx="96.8859" ry="21.7772" style="stroke:#4F46E5;stroke-width:0.5;"/><text fill="#0F172A" font-family="sans-serif" font-size="12" lengthAdjust="spacing" textLength="174.2988" x="724.0965" y="254.8484">Consulter mes conversations</text></g><!--entity UC26--><g class="entity" data-qualified-name="R5.UC26" data-source-line="60" id="ent0022"><ellipse cx="621.2521" cy="251.3673" fill="#F5F7FF" rx="74.9521" ry="17.3904" style="stroke:#4F46E5;stroke-width:0.5;"/><text fill="#0F172A" font-family="sans-serif" font-size="12" lengthAdjust="spacing" textLength="125.8184" x="558.3429" y="254.8517">Envoyer un message</text></g><!--entity UC27--><g class="entity" data-qualified-name="R5.UC27" data-source-line="61" id="ent0023"><ellipse cx="1001.2508" cy="397.633" fill="#F5F7FF" rx="92.2308" ry="20.8462" style="stroke:#4F46E5;stroke-width:0.5;"/><text fill="#0F172A" font-family="sans-serif" font-size="12" lengthAdjust="spacing" textLength="164.2266" x="919.1375" y="401.1174">Consulter mes notifications</text></g><!--entity UC28--><g class="entity" data-qualified-name="R5.UC28" data-source-line="62" id="ent0024"><ellipse cx="1001.246" cy="251.3681" fill="#F5F7FF" rx="75.506" ry="17.5012" style="stroke:#4F46E5;stroke-width:0.5;"/><text fill="#0F172A" font-family="sans-serif" font-size="12" lengthAdjust="spacing" textLength="127.084" x="937.704" y="254.8525">Marquer comme lues</text></g><!--entity UC29--><g class="entity" data-qualified-name="R5.UC29" data-source-line="63" id="ent0025"><ellipse cx="1185.2496" cy="251.3648" fill="#F5F7FF" rx="90.4896" ry="20.4979" style="stroke:#4F46E5;stroke-width:0.5;"/><text fill="#0F172A" font-family="sans-serif" font-size="12" lengthAdjust="spacing" textLength="160.4355" x="1105.0318" y="254.8492">Supprimer une notification</text></g><!--entity UC30--><g class="entity" data-qualified-name="R6.UC30" data-source-line="67" id="ent0027"><ellipse cx="3968.2546" cy="251.3698" fill="#F5F7FF" rx="71.9146" ry="16.7829" style="stroke:#4F46E5;stroke-width:0.5;"/><text fill="#0F172A" font-family="sans-serif" font-size="12" lengthAdjust="spacing" textLength="118.8223" x="3908.8435" y="254.8542">Discuter avec SAGE</text></g><!--entity UC31--><g class="entity" data-qualified-name="R6.UC31" data-source-line="68" id="ent0028"><ellipse cx="3762.245" cy="102.3899" fill="#F5F7FF" rx="103.465" ry="23.093" style="stroke:#4F46E5;stroke-width:0.5;"/><text fill="#0F172A" font-family="sans-serif" font-size="12" lengthAdjust="spacing" textLength="182.707" x="3670.8915" y="104.4974">Obtenir des recommandations</text><text fill="#0F172A" font-family="sans-serif" font-size="12" lengthAdjust="spacing" textLength="45.2754" x="3739.6073" y="118.4661">d'offres</text></g><!--entity UC32--><g class="entity" data-qualified-name="R6.UC32" data-source-line="69" id="ent0029"><ellipse cx="3968.255" cy="102.3859" fill="#F5F7FF" rx="84.295" ry="19.259" style="stroke:#4F46E5;stroke-width:0.5;"/><text fill="#0F172A" font-family="sans-serif" font-size="12" lengthAdjust="spacing" textLength="146.8242" x="3894.8429" y="105.8702">Analyser mon CV via l'IA</text></g><!--entity UC33--><g class="entity" data-qualified-name="R6.UC33" data-source-line="70" id="ent0030"><ellipse cx="4161.25" cy="102.3833" fill="#F5F7FF" rx="90.35" ry="22.1964" style="stroke:#4F46E5;stroke-width:0.5;"/><text fill="#0F172A" font-family="sans-serif" font-size="12" lengthAdjust="spacing" textLength="111.5859" x="4105.457" y="98.0817">G&#233;n&#233;rer une lettre</text><text fill="#0F172A" font-family="sans-serif" font-size="12" lengthAdjust="spacing" textLength="127.125" x="4097.6875" y="112.0505">de motivation via l'IA</text></g><!--entity UCctx--><g class="entity" data-qualified-name="R6.UCctx" data-source-line="71" id="ent0031"><ellipse cx="3968.2534" cy="397.6356" fill="#F5F7FF" rx="83.1434" ry="19.0287" style="stroke:#4F46E5;stroke-width:0.5;"/><text fill="#0F172A" font-family="sans-serif" font-size="12" lengthAdjust="spacing" textLength="144.2695" x="3896.1186" y="401.1199">Consulter le contexte IA</text></g><!--entity UC11--><g class="entity" data-qualified-name="R7.UC11" data-source-line="75" id="ent0033"><ellipse cx="1421.2504" cy="251.365" fill="#F5F7FF" rx="61.5404" ry="14.7081" style="stroke:#4F46E5;stroke-width:0.5;"/><text fill="#0F172A" font-family="sans-serif" font-size="12" lengthAdjust="spacing" textLength="93.9668" x="1374.267" y="254.8493">Se d&#233;connecter</text></g><!--entity UC34--><g class="entity" data-qualified-name="R7.UC34" data-source-line="76" id="ent0034"><ellipse cx="1598.2508" cy="251.3657" fill="#F5F7FF" rx="97.4308" ry="22.3288" style="stroke:#4F46E5;stroke-width:0.5;"/><text fill="#0F172A" font-family="sans-serif" font-size="12" lengthAdjust="spacing" textLength="136.4883" x="1530.0067" y="248.4749">G&#233;rer mes param&#232;tres</text><text fill="#0F172A" font-family="sans-serif" font-size="12" lengthAdjust="spacing" textLength="124.0137" x="1536.244" y="262.4436">de compte / s&#233;curit&#233;</text></g><!--entity UC35--><g class="entity" data-qualified-name="R7.UC35" data-source-line="77" id="ent0035"><ellipse cx="1794.2528" cy="251.3654" fill="#F5F7FF" rx="80.5928" ry="18.5186" style="stroke:#4F46E5;stroke-width:0.5;"/><text fill="#0F172A" font-family="sans-serif" font-size="12" lengthAdjust="spacing" textLength="138.5801" x="1724.9628" y="254.8498">G&#233;rer mes pr&#233;f&#233;rences</text></g><!--entity UC36--><g class="entity" data-qualified-name="R7.UC36" data-source-line="78" id="ent0036"><ellipse cx="1975.2517" cy="251.3712" fill="#F5F7FF" rx="82.2717" ry="18.8543" style="stroke:#4F46E5;stroke-width:0.5;"/><text fill="#0F172A" font-family="sans-serif" font-size="12" lengthAdjust="spacing" textLength="142.3301" x="1904.0866" y="254.8556">Supprimer mon compte</text></g><!--entity Etudiant--><g class="entity" data-qualified-name="Etudiant" data-source-line="30" id="ent0001"><ellipse cx="1634.2447" cy="80.2369" fill="#E2E8F0" rx="16" ry="16" style="stroke:#334155;stroke-width:0.5;"/><path d="M1634.2447,100.2369 C1638.2447,100.2369 1641.2447,100.2369 1645.2447,96.2369 C1653.2447,96.2369 1661.2447,104.2369 1661.2447,112.2369 L1661.2447,116.2369 C1661.2447,120.2369 1657.2447,124.2369 1653.2447,124.2369 L1615.2447,124.2369 C1611.2447,124.2369 1607.2447,120.2369 1607.2447,116.2369 L1607.2447,112.2369 C1607.2447,104.2369 1615.2447,96.2369 1623.2447,96.2369 C1627.2447,100.2369 1630.2447,100.2369 1634.2447,100.2369" fill="#E2E8F0" style="stroke:#334155;stroke-width:0.5;"/><text fill="#000000" font-family="sans-serif" font-size="14" font-weight="700" lengthAdjust="spacing" textLength="67.1494" x="1600.67" y="137.732">&#201;tudiant</text></g><!--entity ServiceIA--><g class="entity" data-qualified-name="ServiceIA" data-source-line="31" id="ent0002"><ellipse cx="4327.2497" cy="375.4938" fill="#E2E8F0" rx="16" ry="16" style="stroke:#334155;stroke-width:0.5;"/><path d="M4327.2497,395.4938 C4331.2497,395.4938 4334.2497,395.4938 4338.2497,391.4938 C4346.2497,391.4938 4354.2497,399.4938 4354.2497,407.4938 L4354.2497,411.4938 C4354.2497,415.4938 4350.2497,419.4938 4346.2497,419.4938 L4308.2497,419.4938 C4304.2497,419.4938 4300.2497,415.4938 4300.2497,411.4938 L4300.2497,407.4938 C4300.2497,399.4938 4308.2497,391.4938 4316.2497,391.4938 C4320.2497,395.4938 4323.2497,395.4938 4327.2497,395.4938" fill="#E2E8F0" style="stroke:#334155;stroke-width:0.5;"/><text fill="#000000" font-family="sans-serif" font-size="14" font-weight="700" lengthAdjust="spacing" textLength="79.1191" x="4283.51" y="432.9889">Service IA</text><text fill="#000000" font-family="sans-serif" font-size="14" font-weight="700" lengthAdjust="spacing" textLength="87.4795" x="4283.51" y="449.2857">(Groq LLM)</text><text fill="#000000" font-family="sans-serif" font-size="14" font-weight="700" lengthAdjust="spacing" textLength="74.6553" x="4289.9221" y="355.692">&#171;system&#187;</text></g><!--link Etudiant to UC12--><g class="link" data-entity-1="ent0001" data-entity-2="ent0004" data-link-type="dependency" data-source-line="81" id="lnk37"><path d="M1600.21,103.9969 C1437.83,107.1669 741.26,124.2169 534.25,186.0369 C498.25,196.7869 465.007,216.6637 442.217,232.0137" fill="none" id="Etudiant-to-UC12" style="stroke:#475569;stroke-width:1;"/><polygon fill="#475569" points="438.07,234.8069,447.7692,233.0967,442.217,232.0137,443.3001,226.4615,438.07,234.8069" style="stroke:#475569;stroke-width:1;stroke-linejoin:miter;stroke-miterlimit:10;"/></g><!--link Etudiant to UC13--><g class="link" data-entity-1="ent0001" data-entity-2="ent0005" data-link-type="dependency" data-source-line="82" id="lnk38"><path d="M1600.41,103.4169 C1452.14,103.8469 845.11,108.8869 350.25,161.0369 C283.03,168.1269 261.84,158.2169 200.25,186.0369 C174.46,197.6869 153.546,216.3323 138.856,231.3523" fill="none" id="Etudiant-to-UC13" style="stroke:#475569;stroke-width:1;"/><polygon fill="#475569" points="135.36,234.9269,144.5126,231.2895,138.856,231.3523,138.7932,225.6958,135.36,234.9269" style="stroke:#475569;stroke-width:1;stroke-linejoin:miter;stroke-miterlimit:10;"/></g><!--link Etudiant to UC14--><g class="link" data-entity-1="ent0001" data-entity-2="ent0006" data-link-type="dependency" data-source-line="83" id="lnk39"><path d="M1600.38,104.5269 C1467.6,109.1169 969.84,127.6869 561.25,161.0369 C459.65,169.3269 425.44,142.5369 333.25,186.0369 C308.79,197.5769 290.8587,217.9159 279.4587,233.1259" fill="none" id="Etudiant-to-UC14" style="stroke:#475569;stroke-width:1;"/><polygon fill="#475569" points="276.46,237.1269,285.0585,232.3242,279.4587,233.1259,278.657,227.5262,276.46,237.1269" style="stroke:#475569;stroke-width:1;stroke-linejoin:miter;stroke-miterlimit:10;"/></g><!--link Etudiant to UC15--><g class="link" data-entity-1="ent0001" data-entity-2="ent0008" data-link-type="dependency" data-source-line="84" id="lnk40"><path d="M1668.12,106.4469 C1742.48,113.8769 1924.87,136.0769 2069.25,186.0369 C2102.71,197.6169 2134.0357,214.3727 2158.4657,228.8127" fill="none" id="Etudiant-to-UC15" style="stroke:#475569;stroke-width:1;"/><polygon fill="#475569" points="2162.77,231.3569,2157.0576,223.3339,2158.4657,228.8127,2152.9869,230.2208,2162.77,231.3569" style="stroke:#475569;stroke-width:1;stroke-linejoin:miter;stroke-miterlimit:10;"/></g><!--link Etudiant to UC16--><g class="link" data-entity-1="ent0001" data-entity-2="ent0009" data-link-type="dependency" data-source-line="85" id="lnk41"><path d="M1667.95,105.6769 C1784.14,113.8669 2167.22,143.5469 2282.25,186.0369 C2310.12,196.3369 2334.149,212.717 2353.029,227.557" fill="none" id="Etudiant-to-UC16" style="stroke:#475569;stroke-width:1;"/><polygon fill="#475569" points="2356.96,230.6469,2352.3561,221.9403,2353.029,227.557,2347.4123,228.23,2356.96,230.6469" style="stroke:#475569;stroke-width:1;stroke-linejoin:miter;stroke-miterlimit:10;"/></g><!--link Etudiant to UC17--><g class="link" data-entity-1="ent0001" data-entity-2="ent0011" data-link-type="dependency" data-source-line="86" id="lnk42"><path d="M1600.44,108.0369 C1531.36,118.2869 1377.96,145.2369 1347.25,186.0369 C1317.41,225.6869 1313.46,261.3469 1347.25,297.6969 C1434.06,391.0769 2336.4,397.2924 2615.21,396.9824" fill="none" id="Etudiant-to-UC17" style="stroke:#475569;stroke-width:1;"/><polygon fill="#475569" points="2620.21,396.9769,2611.2056,392.9869,2615.21,396.9824,2611.2145,400.9869,2620.21,396.9769" style="stroke:#475569;stroke-width:1;stroke-linejoin:miter;stroke-miterlimit:10;"/></g><!--link Etudiant to UC18--><g class="link" data-entity-1="ent0001" data-entity-2="ent0012" data-link-type="dependency" data-source-line="87" id="lnk43"><path d="M1668.22,105.7269 C1777.15,113.2769 2127.51,137.7969 2417.25,161.0369 C2545.32,171.3069 2584.6,141.8669 2705.25,186.0369 C2733.23,196.2869 2756.7342,214.1649 2774.0042,229.4349" fill="none" id="Etudiant-to-UC18" style="stroke:#475569;stroke-width:1;"/><polygon fill="#475569" points="2777.75,232.7469,2773.6572,223.7887,2774.0042,229.4349,2768.358,229.7819,2777.75,232.7469" style="stroke:#475569;stroke-width:1;stroke-linejoin:miter;stroke-miterlimit:10;"/></g><!--link Etudiant to UC19--><g class="link" data-entity-1="ent0001" data-entity-2="ent0013" data-link-type="dependency" data-source-line="88" id="lnk44"><path d="M1667.93,105.3069 C1788.82,112.2169 2212.18,136.7569 2561.25,161.0369 C2705.77,171.0869 2751.39,133.1169 2886.25,186.0369 C2913.16,196.5969 2934.782,215.7247 2949.702,231.1347" fill="none" id="Etudiant-to-UC19" style="stroke:#475569;stroke-width:1;"/><polygon fill="#475569" points="2953.18,234.7269,2949.7934,225.4786,2949.702,231.1347,2944.0459,231.0433,2953.18,234.7269" style="stroke:#475569;stroke-width:1;stroke-linejoin:miter;stroke-miterlimit:10;"/></g><!--link Etudiant to UC20--><g class="link" data-entity-1="ent0001" data-entity-2="ent0014" data-link-type="dependency" data-source-line="89" id="lnk45"><path d="M1668.19,105.0269 C1806.17,111.9369 2325.08,140.4769 2482.25,186.0369 C2519.02,196.6969 2553.624,215.0386 2578.964,230.1286" fill="none" id="Etudiant-to-UC20" style="stroke:#475569;stroke-width:1;"/><polygon fill="#475569" points="2583.26,232.6869,2577.5739,224.6452,2578.964,230.1286,2573.4807,231.5188,2583.26,232.6869" style="stroke:#475569;stroke-width:1;stroke-linejoin:miter;stroke-miterlimit:10;"/></g><!--link Etudiant to UC21--><g class="link" data-entity-1="ent0001" data-entity-2="ent0016" data-link-type="dependency" data-source-line="90" id="lnk46"><path d="M1668.05,104.0669 C1856.05,108.0069 2774.27,129.8869 3051.25,186.0369 C3105,196.9369 3159.89,216.5992 3198.2,231.7392" fill="none" id="Etudiant-to-UC21" style="stroke:#475569;stroke-width:1;"/><polygon fill="#475569" points="3202.85,233.5769,3195.9501,226.549,3198.2,231.7392,3193.0098,233.9891,3202.85,233.5769" style="stroke:#475569;stroke-width:1;stroke-linejoin:miter;stroke-miterlimit:10;"/></g><!--link Etudiant to UC25--><g class="link" data-entity-1="ent0001" data-entity-2="ent0021" data-link-type="dependency" data-source-line="91" id="lnk47"><path d="M1600.21,109.3469 C1516.17,123.7869 1291.91,160.7869 1103.25,178.0369 C1061.83,181.8269 956.03,173.8969 916.25,186.0369 C886.4,195.1469 860.4374,211.7834 840.2074,226.9834" fill="none" id="Etudiant-to-UC25" style="stroke:#475569;stroke-width:1;"/><polygon fill="#475569" points="836.21,229.9869,845.8081,227.7785,840.2074,226.9834,841.0025,221.3827,836.21,229.9869" style="stroke:#475569;stroke-width:1;stroke-linejoin:miter;stroke-miterlimit:10;"/></g><!--link Etudiant to UC26--><g class="link" data-entity-1="ent0001" data-entity-2="ent0022" data-link-type="dependency" data-source-line="92" id="lnk48"><path d="M1600.28,107.0169 C1490.55,118.6469 1135.62,155.5369 841.25,178.0369 C811.06,180.3469 733.62,175.4869 705.25,186.0369 C677.88,196.2169 655.6492,215.045 640.0492,230.525" fill="none" id="Etudiant-to-UC26" style="stroke:#475569;stroke-width:1;"/><polygon fill="#475569" points="636.5,234.0469,645.706,230.5469,640.0492,230.525,640.071,224.8682,636.5,234.0469" style="stroke:#475569;stroke-width:1;stroke-linejoin:miter;stroke-miterlimit:10;"/></g><!--link Etudiant to UC27--><g class="link" data-entity-1="ent0001" data-entity-2="ent0023" data-link-type="dependency" data-source-line="93" id="lnk49"><path d="M1600.32,103.7869 C1374.16,106.5669 92.32,124.9969 39.25,186.0369 C6.69,223.4869 6,260.8569 39.25,297.6969 C97,361.6969 676.2326,386.5257 905.0426,393.9057" fill="none" id="Etudiant-to-UC27" style="stroke:#475569;stroke-width:1;"/><polygon fill="#475569" points="910.04,394.0669,901.1736,389.7788,905.0426,393.9057,900.9157,397.7747,910.04,394.0669" style="stroke:#475569;stroke-width:1;stroke-linejoin:miter;stroke-miterlimit:10;"/></g><!--link Etudiant to UC30--><g class="link" data-entity-1="ent0001" data-entity-2="ent0027" data-link-type="dependency" data-source-line="94" id="lnk50"><path d="M1668.29,103.8769 C1818.83,106.2469 2439.66,118.2369 2947.25,161.0369 C3007.95,166.1569 3022.48,173.7969 3083.25,178.0369 C3201.2,186.2769 3497.58,174.5069 3615.25,186.0369 C3724.83,196.7769 3846.4945,222.238 3914.3345,237.668" fill="none" id="Etudiant-to-UC30" style="stroke:#475569;stroke-width:1;"/><polygon fill="#475569" points="3919.21,238.7769,3911.3213,232.8804,3914.3345,237.668,3909.547,240.6812,3919.21,238.7769" style="stroke:#475569;stroke-width:1;stroke-linejoin:miter;stroke-miterlimit:10;"/></g><!--link Etudiant to UC11--><g class="link" data-entity-1="ent0001" data-entity-2="ent0033" data-link-type="dependency" data-source-line="95" id="lnk51"><path d="M1600.31,120.5569 C1570.74,136.0969 1527.24,160.4369 1492.25,186.0369 C1470.77,201.7569 1451.9545,219.4304 1438.1945,233.1204" fill="none" id="Etudiant-to-UC11" style="stroke:#475569;stroke-width:1;"/><polygon fill="#475569" points="1434.65,236.6469,1443.8514,233.1348,1438.1945,233.1204,1438.209,227.4635,1434.65,236.6469" style="stroke:#475569;stroke-width:1;stroke-linejoin:miter;stroke-miterlimit:10;"/></g><!--link Etudiant to UC34--><g class="link" data-entity-1="ent0001" data-entity-2="ent0034" data-link-type="dependency" data-source-line="96" id="lnk52"><path d="M1624.98,141.2369 C1618.19,168.9669 1610.3998,200.7705 1604.7698,223.7505" fill="none" id="Etudiant-to-UC34" style="stroke:#475569;stroke-width:1;"/><polygon fill="#475569" points="1603.58,228.6069,1609.6067,220.8172,1604.7698,223.7505,1601.8365,218.9136,1603.58,228.6069" style="stroke:#475569;stroke-width:1;stroke-linejoin:miter;stroke-miterlimit:10;"/></g><!--link Etudiant to UC35--><g class="link" data-entity-1="ent0001" data-entity-2="ent0035" data-link-type="dependency" data-source-line="97" id="lnk53"><path d="M1668.18,134.5569 C1700.84,164.5569 1745.3474,205.4448 1771.6874,229.6348" fill="none" id="Etudiant-to-UC35" style="stroke:#475569;stroke-width:1;"/><polygon fill="#475569" points="1775.37,233.0169,1771.4469,223.9831,1771.6874,229.6348,1766.0356,229.8753,1775.37,233.0169" style="stroke:#475569;stroke-width:1;stroke-linejoin:miter;stroke-miterlimit:10;"/></g><!--link Etudiant to UC36--><g class="link" data-entity-1="ent0001" data-entity-2="ent0036" data-link-type="dependency" data-source-line="98" id="lnk54"><path d="M1668.25,111.2169 C1717.56,123.3169 1810.99,149.0769 1884.25,186.0369 C1909.99,199.0269 1932.6833,215.5664 1950.4233,229.7364" fill="none" id="Etudiant-to-UC36" style="stroke:#475569;stroke-width:1;"/><polygon fill="#475569" points="1954.33,232.8569,1949.7943,224.1146,1950.4233,229.7364,1944.8015,230.3653,1954.33,232.8569" style="stroke:#475569;stroke-width:1;stroke-linejoin:miter;stroke-miterlimit:10;"/></g><!--link UC18 to UC17--><g class="link" data-entity-1="ent0012" data-entity-2="ent0011" data-link-type="dependency" data-source-line="100" id="lnk55"><path d="M2784.6,270.0569 C2766.76,297.1469 2735.5499,344.551 2716.9599,372.781" fill="none" id="UC18-to-UC17" style="stroke:#475569;stroke-width:1;stroke-dasharray:7,7;"/><polygon fill="#475569" points="2714.21,376.9569,2722.5005,371.6402,2716.9599,372.781,2715.8191,367.2404,2714.21,376.9569" style="stroke:#475569;stroke-width:1;stroke-linejoin:miter;stroke-miterlimit:10;"/><text fill="#000000" font-family="sans-serif" font-size="13" lengthAdjust="spacing" textLength="61.1851" x="2761.05" y="318.7638">&#171;extend&#187;</text></g><!--link UC22 to UC21--><g class="link" data-entity-1="ent0017" data-entity-2="ent0016" data-link-type="dependency" data-source-line="101" id="lnk56"><path d="M3183.45,121.1169 C3196.38,149.0669 3219.2798,198.5694 3232.4898,227.1094" fill="none" id="UC22-to-UC21" style="stroke:#475569;stroke-width:1;stroke-dasharray:7,7;"/><polygon fill="#475569" points="3234.59,231.6469,3234.4396,221.7992,3232.4898,227.1094,3227.1796,225.1595,3234.59,231.6469" style="stroke:#475569;stroke-width:1;stroke-linejoin:miter;stroke-miterlimit:10;"/><text fill="#000000" font-family="sans-serif" font-size="13" lengthAdjust="spacing" textLength="61.1851" x="3210.25" y="174.1038">&#171;extend&#187;</text></g><!--link UC23 to UC21--><g class="link" data-entity-1="ent0018" data-entity-2="ent0016" data-link-type="dependency" data-source-line="102" id="lnk57"><path d="M3335.72,119.6769 C3316.26,147.1869 3279.8879,198.5852 3259.3479,227.6152" fill="none" id="UC23-to-UC21" style="stroke:#475569;stroke-width:1;stroke-dasharray:7,7;"/><polygon fill="#475569" points="3256.46,231.6969,3264.9236,226.6603,3259.3479,227.6152,3258.393,222.0396,3256.46,231.6969" style="stroke:#475569;stroke-width:1;stroke-linejoin:miter;stroke-miterlimit:10;"/><text fill="#000000" font-family="sans-serif" font-size="13" lengthAdjust="spacing" textLength="61.1851" x="3305.56" y="174.1038">&#171;extend&#187;</text></g><!--link UC24 to UC21--><g class="link" data-entity-1="ent0019" data-entity-2="ent0016" data-link-type="dependency" data-source-line="103" id="lnk58"><path d="M3489.63,120.1069 C3436.69,148.0969 3335.0403,201.84 3280.9803,230.42" fill="none" id="UC24-to-UC21" style="stroke:#475569;stroke-width:1;stroke-dasharray:7,7;"/><polygon fill="#475569" points="3276.56,232.7569,3286.386,232.0867,3280.9803,230.42,3282.647,225.0143,3276.56,232.7569" style="stroke:#475569;stroke-width:1;stroke-linejoin:miter;stroke-miterlimit:10;"/><text fill="#000000" font-family="sans-serif" font-size="13" lengthAdjust="spacing" textLength="61.1851" x="3408.15" y="174.1038">&#171;extend&#187;</text></g><!--link UC28 to UC27--><g class="link" data-entity-1="ent0024" data-entity-2="ent0023" data-link-type="dependency" data-source-line="104" id="lnk59"><path d="M1001.25,269.1969 C1001.25,295.9569 1001.25,343.0969 1001.25,371.6869" fill="none" id="UC28-to-UC27" style="stroke:#475569;stroke-width:1;stroke-dasharray:7,7;"/><polygon fill="#475569" points="1001.25,376.6869,1005.25,367.6869,1001.25,371.6869,997.25,367.6869,1001.25,376.6869" style="stroke:#475569;stroke-width:1;stroke-linejoin:miter;stroke-miterlimit:10;"/><text fill="#000000" font-family="sans-serif" font-size="13" lengthAdjust="spacing" textLength="61.1851" x="1002.25" y="318.7638">&#171;extend&#187;</text></g><!--link UC29 to UC27--><g class="link" data-entity-1="ent0025" data-entity-2="ent0023" data-link-type="dependency" data-source-line="105" id="lnk60"><path d="M1160.82,271.5269 C1125.72,299.0469 1065.3245,346.4015 1030.0145,374.0915" fill="none" id="UC29-to-UC27" style="stroke:#475569;stroke-width:1;stroke-dasharray:7,7;"/><polygon fill="#475569" points="1026.08,377.1769,1035.6304,374.7707,1030.0145,374.0915,1030.6937,368.4755,1026.08,377.1769" style="stroke:#475569;stroke-width:1;stroke-linejoin:miter;stroke-miterlimit:10;"/><text fill="#000000" font-family="sans-serif" font-size="13" lengthAdjust="spacing" textLength="61.1851" x="1116.14" y="318.7638">&#171;extend&#187;</text></g><!--link UC30 to UCctx--><g class="link" data-entity-1="ent0027" data-entity-2="ent0031" data-link-type="dependency" data-source-line="106" id="lnk61"><path d="M3968.25,268.6369 C3968.25,295.7569 3968.25,345.0169 3968.25,373.3969" fill="none" id="UC30-to-UCctx" style="stroke:#475569;stroke-width:1;stroke-dasharray:7,7;"/><polygon fill="#475569" points="3968.25,378.3969,3972.25,369.3969,3968.25,373.3969,3964.25,369.3969,3968.25,378.3969" style="stroke:#475569;stroke-width:1;stroke-linejoin:miter;stroke-miterlimit:10;"/><text fill="#000000" font-family="sans-serif" font-size="13" lengthAdjust="spacing" textLength="63.0068" x="3969.25" y="318.7638">&#171;include&#187;</text></g><!--link UC31 to UC30--><g class="link" data-entity-1="ent0028" data-entity-2="ent0027" data-link-type="dependency" data-source-line="107" id="lnk62"><path d="M3792.2,124.7569 C3834.27,154.7769 3905.7702,205.7822 3942.6902,232.1322" fill="none" id="UC31-to-UC30" style="stroke:#475569;stroke-width:1;stroke-dasharray:7,7;"/><polygon fill="#475569" points="3946.76,235.0369,3941.7581,226.5527,3942.6902,232.1322,3937.1107,233.0644,3946.76,235.0369" style="stroke:#475569;stroke-width:1;stroke-linejoin:miter;stroke-miterlimit:10;"/><text fill="#000000" font-family="sans-serif" font-size="13" lengthAdjust="spacing" textLength="61.1851" x="3866.25" y="174.1038">&#171;extend&#187;</text></g><!--link UC32 to UC30--><g class="link" data-entity-1="ent0029" data-entity-2="ent0027" data-link-type="dependency" data-source-line="108" id="lnk63"><path d="M3968.25,122.0069 C3968.25,151.0469 3968.25,201.6569 3968.25,229.1569" fill="none" id="UC32-to-UC30" style="stroke:#475569;stroke-width:1;stroke-dasharray:7,7;"/><polygon fill="#475569" points="3968.25,234.1569,3972.25,225.1569,3968.25,229.1569,3964.25,225.1569,3968.25,234.1569" style="stroke:#475569;stroke-width:1;stroke-linejoin:miter;stroke-miterlimit:10;"/><text fill="#000000" font-family="sans-serif" font-size="13" lengthAdjust="spacing" textLength="61.1851" x="3969.25" y="174.1038">&#171;extend&#187;</text></g><!--link UC33 to UC30--><g class="link" data-entity-1="ent0030" data-entity-2="ent0027" data-link-type="dependency" data-source-line="109" id="lnk64"><path d="M4134.41,123.8269 C4095.36,153.5669 4027.7078,205.0875 3992.6478,231.7875" fill="none" id="UC33-to-UC30" style="stroke:#475569;stroke-width:1;stroke-dasharray:7,7;"/><polygon fill="#475569" points="3988.67,234.8169,3998.2536,232.5464,3992.6478,231.7875,3993.4066,226.1818,3988.67,234.8169" style="stroke:#475569;stroke-width:1;stroke-linejoin:miter;stroke-miterlimit:10;"/><text fill="#000000" font-family="sans-serif" font-size="13" lengthAdjust="spacing" textLength="61.1851" x="4083.04" y="174.1038">&#171;extend&#187;</text></g><!--link UC30 to ServiceIA--><g class="link" data-entity-1="ent0027" data-entity-2="ent0002" data-link-type="association" data-source-line="110" id="lnk65"><path d="M4023.88,262.4169 C4085.22,275.0369 4185.52,300.3569 4263.25,342.6969 C4270.01,346.3769 4276.72,350.8469 4283.1,355.6269" fill="none" id="UC30-ServiceIA" style="stroke:#475569;stroke-width:1;"/></g><?plantuml-src VLRDRjiu4BxhAOWiq7GFxLf__baK0HJN2W8qQ16ZUyg5aMYN24Mw9EKqkrXWhxtt0VQuVWw_oJx93YLHbaHh7HYmPhxvPkRZS1JrHFaEIroWHvmzRQKeURuKJ4ZqKrfzFDKYSAQ5NEiNHX1-9aeKfEFSGJZUajejIQOntx8kG7t1kNYcV8iscAckfrGamugWFpo4hfqgudG6LO17o9p8nXgbqNGLWpMHKZnRuooEfmimfeBhnZP9_LcGDBOr_PqWF_3-73PLf-uc2CF8Z-Dp1Qs2rJoTMCQgtKV1yXvfsxzBt5RkTfh0N-eIz_hnL_vrTDrBTaQ2avEBd2YoG_wyMnxcJyOOJJnFKms9tbEy1Kz1K4uG70RABqjD6LLOKy5HVZneJ1ax7j2_V_r0n--wp2dcslDg-IvQomM2u9LrDzuraNkQ4NIRFF3NDr9yHHy-tFrSGHlNROBUlLClIfFYwihpJlfTV99YGrc5lVShEUsuN2m5LoNJHA82QjoTW9-NSCWTu9t8wOQUnOLTtCtn81lKyZUBY43iRa6fa4MbYggB2lf5fPXAWafkb2mmpya3poyfLvcaEnDbQUDkqBgaUuWgYB9HQYHiEgZcusOZ8UeL71hFQOvr2OzrOM6_i7kIVI7IV17H22JGqEi3Pn0jAXAROjQh39TxiiLcW17XS7NtGj8MEkz2FmcbImQuuzzL_nMhHIv6sdNA_hmC9eCULnnArPHOnQFHCG12qWS3dJy0RwWi05po4zP2WxvW6_Xz7XYUBy28MOWSCwgFXxQ0uGGjHL6Kd6QuFTZx-FzQoWJV4wawGmUalVbPyRrugKk500LxsCAcuxHSQBWLMP-sT_XtM7uj0Pq9inbOUJgYUVyuTpj9Qqr9ZzR25mC54gMeWWSDAm6zNYStgteRt4_xEhodAYjDlNXFCcHm3MCuwS8-Fch2gOIxeypgXMfXgkg-p3NgZNVO6uU4O_QYsZkFzXGZTdcRM70mM0-ytX2cJqOq30Nmmo13o_jwKmu9HWV5dAectxJPYWquqz_SITa1uXMgzlRn7zrUxbbVg3KnEneeEGGJQM-TVswxWKWTkgg1hCxp2r90KaeplRQ1Q8n27WyRyyYpaxRn-R4mujOfBB1QO_OrWTwykQftzj0IEfR8iSIEPUfOPevbxbWMGmlieQ75TonEzi397ZZPGuVPTvX3fzFGoGKoUgONzFPjtIRw5LwZPgXu3gzHiz0QL-0xhd3S5OsxRAx0pRKOTOMJnWKJNlaeprYPazhfDqv03UE2SLSuxfg0FAT_BBp_0000?></g></svg>