<svg xmlns="http://www.w3.org/2000/svg" xmlns:xlink="http://www.w3.org/1999/xlink" contentStyleType="text/css" data-diagram-type="DESCRIPTION" height="741px" preserveAspectRatio="none" style="width:4081px;height:741px;background:#FFFFFF;" version="1.1" viewBox="0 0 4081 741" width="4081px" zoomAndPan="magnify"><?plantuml 1.2026.6?><defs/><g><g class="title" data-source-line="30"><text fill="#000000" font-family="sans-serif" font-size="14" font-weight="700" lengthAdjust="spacing" textLength="405.3301" x="1834.4941" y="22.9951">Diagramme de cas d'utilisation global &#8212; StageFlow</text></g><!--cluster StageFlow--><g class="cluster" data-qualified-name="StageFlow" data-source-line="38" id="ent0006"><rect fill="#FAFAFF" height="475.97" rx="2.5" ry="2.5" style="stroke:#4F46E5;stroke-width:1;" width="3889" x="103.62" y="163.9369"/><text fill="#1E1B4B" font-family="sans-serif" font-size="14" font-weight="700" lengthAdjust="spacing" textLength="82.6533" x="2006.7933" y="178.932">StageFlow</text></g><!--cluster PUB--><g class="cluster" data-qualified-name="StageFlow.PUB" data-source-line="40" id="ent0007"><rect fill="#FAFAFF" height="247.5" rx="2.5" ry="2.5" style="stroke:#4F46E5;stroke-width:1;" width="829" x="3139.62" y="368.4069"/><text fill="#1E1B4B" font-family="sans-serif" font-size="14" font-weight="700" lengthAdjust="spacing" textLength="98.041" x="3505.0995" y="383.402">Acc&#232;s public</text></g><!--cluster ETU--><g class="cluster" data-qualified-name="StageFlow.ETU" data-source-line="48" id="ent0013"><rect fill="#FAFAFF" height="99.69" rx="2.5" ry="2.5" style="stroke:#4F46E5;stroke-width:1;" width="1878" x="127.62" y="206.9369"/><text fill="#1E1B4B" font-family="sans-serif" font-size="14" font-weight="700" lengthAdjust="spacing" textLength="127.1826" x="1003.0287" y="221.932">Espace &#201;tudiant</text></g><!--cluster ENT--><g class="cluster" data-qualified-name="StageFlow.ENT" data-source-line="60" id="ent0023"><rect fill="#FAFAFF" height="99.01" rx="2.5" ry="2.5" style="stroke:#4F46E5;stroke-width:1;" width="636" x="2029.62" y="207.2769"/><text fill="#1E1B4B" font-family="sans-serif" font-size="14" font-weight="700" lengthAdjust="spacing" textLength="142.208" x="2276.516" y="222.272">Espace Entreprise</text></g><!--cluster ADM--><g class="cluster" data-qualified-name="StageFlow.ADM" data-source-line="66" id="ent0027"><rect fill="#FAFAFF" height="262.59" rx="2.5" ry="2.5" style="stroke:#4F46E5;stroke-width:1;" width="426" x="2689.62" y="207.2169"/><text fill="#1E1B4B" font-family="sans-serif" font-size="14" font-weight="700" lengthAdjust="spacing" textLength="117.4619" x="2843.889" y="222.212">Administration</text></g><!--entity UC_pub--><g class="entity" data-qualified-name="StageFlow.PUB.UC_pub" data-source-line="41" id="ent0008"><ellipse cx="3279.6226" cy="430.5494" fill="#F5F7FF" rx="123.7126" ry="27.1425" style="stroke:#4F46E5;stroke-width:0.5;"/><text fill="#0F172A" font-family="sans-serif" font-size="13" lengthAdjust="spacing" textLength="195.584" x="3181.8306" y="428.0284">Consulter les pages publiques</text><text fill="#0F172A" font-family="sans-serif" font-size="13" lengthAdjust="spacing" textLength="179.7974" x="3189.7239" y="443.1612">(accueil, formations, offres)</text></g><!--entity UC_register--><g class="entity" data-qualified-name="StageFlow.PUB.UC_register" data-source-line="42" id="ent0009"><ellipse cx="3742.6178" cy="430.5464" fill="#F5F7FF" rx="69.5978" ry="16.3196" style="stroke:#4F46E5;stroke-width:0.5;"/><text fill="#0F172A" font-family="sans-serif" font-size="13" lengthAdjust="spacing" textLength="109.6177" x="3687.809" y="434.6128">Cr&#233;er un compte</text></g><!--entity UC_login--><g class="entity" data-qualified-name="StageFlow.PUB.UC_login" data-source-line="43" id="ent0010"><ellipse cx="3892.6239" cy="430.5476" fill="#F5F7FF" rx="60.1039" ry="14.4208" style="stroke:#4F46E5;stroke-width:0.5;"/><text fill="#0F172A" font-family="sans-serif" font-size="13" lengthAdjust="spacing" textLength="85.5474" x="3849.8502" y="434.6141">Se connecter</text></g><!--entity UC_verify--><g class="entity" data-qualified-name="StageFlow.PUB.UC_verify" data-source-line="44" id="ent0011"><ellipse cx="3801.6212" cy="578.3271" fill="#F5F7FF" rx="95.9012" ry="21.5802" style="stroke:#4F46E5;stroke-width:0.5;"/><text fill="#0F172A" font-family="sans-serif" font-size="13" lengthAdjust="spacing" textLength="169.6982" x="3716.7721" y="582.3935">V&#233;rifier son adresse email</text></g><!--entity UC_pref--><g class="entity" data-qualified-name="StageFlow.PUB.UC_pref" data-source-line="45" id="ent0012"><ellipse cx="3538.6175" cy="430.5444" fill="#F5F7FF" rx="114.8875" ry="25.3775" style="stroke:#4F46E5;stroke-width:0.5;"/><text fill="#0F172A" font-family="sans-serif" font-size="13" lengthAdjust="spacing" textLength="159.3452" x="3458.9449" y="426.4659">Personnaliser l'affichage</text><text fill="#0F172A" font-family="sans-serif" font-size="13" lengthAdjust="spacing" textLength="169.9775" x="3453.6288" y="441.5987">(langue FR/EN/AR, th&#232;me)</text></g><!--entity UC_profile--><g class="entity" data-qualified-name="StageFlow.ETU.UC_profile" data-source-line="49" id="ent0014"><ellipse cx="1251.6207" cy="266.281" fill="#F5F7FF" rx="100.4207" ry="22.4841" style="stroke:#4F46E5;stroke-width:0.5;"/><text fill="#0F172A" font-family="sans-serif" font-size="13" lengthAdjust="spacing" textLength="179.5498" x="1161.8458" y="270.3474">G&#233;rer mon profil et mon CV</text></g><!--entity UC_enrollReq--><g class="entity" data-qualified-name="StageFlow.ETU.UC_enrollReq" data-source-line="50" id="ent0015"><ellipse cx="1472.6153" cy="266.2776" fill="#F5F7FF" rx="101.0753" ry="23.1007" style="stroke:#4F46E5;stroke-width:0.5;"/><text fill="#0F172A" font-family="sans-serif" font-size="13" lengthAdjust="spacing" textLength="147.6719" x="1398.7794" y="264.6803">Demander l'inscription</text><text fill="#0F172A" font-family="sans-serif" font-size="13" lengthAdjust="spacing" textLength="104.1143" x="1420.5582" y="279.8131">&#224; une formation</text></g><!--entity UC_apply--><g class="entity" data-qualified-name="StageFlow.ETU.UC_apply" data-source-line="51" id="ent0016"><ellipse cx="1698.6221" cy="266.2727" fill="#F5F7FF" rx="104.7221" ry="23.6458" style="stroke:#4F46E5;stroke-width:0.5;"/><text fill="#0F172A" font-family="sans-serif" font-size="13" lengthAdjust="spacing" textLength="149.1191" x="1624.0625" y="263.861">Rechercher et postuler</text><text fill="#0F172A" font-family="sans-serif" font-size="13" lengthAdjust="spacing" textLength="125.855" x="1635.6946" y="278.9938">aux offres de stage</text></g><!--entity UC_track--><g class="entity" data-qualified-name="StageFlow.ETU.UC_track" data-source-line="52" id="ent0017"><ellipse cx="235.6152" cy="266.2719" fill="#F5F7FF" rx="92.2752" ry="20.855" style="stroke:#4F46E5;stroke-width:0.5;"/><text fill="#0F172A" font-family="sans-serif" font-size="13" lengthAdjust="spacing" textLength="161.7256" x="154.7524" y="270.3383">Suivre mes candidatures</text></g><!--entity UC_interview--><g class="entity" data-qualified-name="StageFlow.ETU.UC_interview" data-source-line="53" id="ent0018"><ellipse cx="429.616" cy="266.2801" fill="#F5F7FF" rx="82.066" ry="18.8132" style="stroke:#4F46E5;stroke-width:0.5;"/><text fill="#0F172A" font-family="sans-serif" font-size="13" lengthAdjust="spacing" textLength="138.855" x="360.1886" y="270.3465">G&#233;rer mes entretiens</text></g><!--entity UC_msg--><g class="entity" data-qualified-name="StageFlow.ETU.UC_msg" data-source-line="54" id="ent0019"><ellipse cx="1906.6246" cy="266.2798" fill="#F5F7FF" rx="82.9146" ry="18.9829" style="stroke:#4F46E5;stroke-width:0.5;"/><text fill="#0F172A" font-family="sans-serif" font-size="13" lengthAdjust="spacing" textLength="140.7847" x="1836.2323" y="270.3462">Utiliser la messagerie</text></g><!--entity UC_notif--><g class="entity" data-qualified-name="StageFlow.ETU.UC_notif" data-source-line="55" id="ent0020"><ellipse cx="619.6167" cy="266.2762" fill="#F5F7FF" rx="88.0467" ry="20.0093" style="stroke:#4F46E5;stroke-width:0.5;"/><text fill="#0F172A" font-family="sans-serif" font-size="13" lengthAdjust="spacing" textLength="152.3374" x="543.448" y="270.3426">G&#233;rer mes notifications</text></g><!--entity UC_ai--><g class="entity" data-qualified-name="StageFlow.ETU.UC_ai" data-source-line="56" id="ent0021"><ellipse cx="828.6236" cy="266.2736" fill="#F5F7FF" rx="101.4336" ry="22.6867" style="stroke:#4F46E5;stroke-width:0.5;"/><text fill="#0F172A" font-family="sans-serif" font-size="13" lengthAdjust="spacing" textLength="181.7461" x="737.7506" y="270.34">Utiliser l'assistant IA (SAGE)</text></g><!--entity UC_settings--><g class="entity" data-qualified-name="StageFlow.ETU.UC_settings" data-source-line="57" id="ent0022"><ellipse cx="1040.6195" cy="266.2763" fill="#F5F7FF" rx="90.6095" ry="24.3494" style="stroke:#4F46E5;stroke-width:0.5;"/><text fill="#0F172A" font-family="sans-serif" font-size="13" lengthAdjust="spacing" textLength="122.9922" x="979.1234" y="262.7031">G&#233;rer mon compte</text><text fill="#0F172A" font-family="sans-serif" font-size="13" lengthAdjust="spacing" textLength="124.1982" x="978.5204" y="277.836">et mes param&#232;tres</text></g><!--entity UC_offers--><g class="entity" data-qualified-name="StageFlow.ENT.UC_offers" data-source-line="61" id="ent0024"><ellipse cx="2141.618" cy="266.2805" fill="#F5F7FF" rx="96.168" ry="21.6336" style="stroke:#4F46E5;stroke-width:0.5;"/><text fill="#0F172A" font-family="sans-serif" font-size="13" lengthAdjust="spacing" textLength="170.2822" x="2056.4769" y="270.3469">G&#233;rer mes offres de stage</text></g><!--entity UC_manageApp--><g class="entity" data-qualified-name="StageFlow.ENT.UC_manageApp" data-source-line="62" id="ent0025"><ellipse cx="2365.6247" cy="266.2798" fill="#F5F7FF" rx="108.0147" ry="24.0029" style="stroke:#4F46E5;stroke-width:0.5;"/><text fill="#0F172A" font-family="sans-serif" font-size="13" lengthAdjust="spacing" textLength="195.9268" x="2267.6613" y="270.3462">G&#233;rer les candidatures re&#231;ues</text></g><!--entity UC_manageInt--><g class="entity" data-qualified-name="StageFlow.ENT.UC_manageInt" data-source-line="63" id="ent0026"><ellipse cx="2571.6231" cy="266.2815" fill="#F5F7FF" rx="78.1231" ry="18.0246" style="stroke:#4F46E5;stroke-width:0.5;"/><text fill="#0F172A" font-family="sans-serif" font-size="13" lengthAdjust="spacing" textLength="129.8032" x="2506.7215" y="270.3479">G&#233;rer les entretiens</text></g><!--entity UC_dash--><g class="entity" data-qualified-name="StageFlow.ADM.UC_dash" data-source-line="67" id="ent0028"><ellipse cx="2799.6176" cy="266.2753" fill="#F5F7FF" rx="94.4276" ry="24.0684" style="stroke:#4F46E5;stroke-width:0.5;"/><text fill="#0F172A" font-family="sans-serif" font-size="13" lengthAdjust="spacing" textLength="131.3394" x="2733.9479" y="263.2494">Consulter le tableau</text><text fill="#0F172A" font-family="sans-serif" font-size="13" lengthAdjust="spacing" textLength="122.8335" x="2738.2008" y="278.3823">de bord statistique</text></g><!--entity UC_formations--><g class="entity" data-qualified-name="StageFlow.ADM.UC_formations" data-source-line="68" id="ent0029"><ellipse cx="3012.6153" cy="430.5486" fill="#F5F7FF" rx="83.9153" ry="23.2618" style="stroke:#4F46E5;stroke-width:0.5;"/><text fill="#0F172A" font-family="sans-serif" font-size="13" lengthAdjust="spacing" textLength="120.8657" x="2952.1824" y="428.7079">G&#233;rer le catalogue</text><text fill="#0F172A" font-family="sans-serif" font-size="13" lengthAdjust="spacing" textLength="90.562" x="2967.3343" y="443.8407">de formations</text></g><!--entity UC_reqAdmin--><g class="entity" data-qualified-name="StageFlow.ADM.UC_reqAdmin" data-source-line="69" id="ent0030"><ellipse cx="3006.6167" cy="266.275" fill="#F5F7FF" rx="92.8767" ry="22.6981" style="stroke:#4F46E5;stroke-width:0.5;"/><text fill="#0F172A" font-family="sans-serif" font-size="13" lengthAdjust="spacing" textLength="138.0933" x="2937.57" y="265.2978">Traiter les demandes</text><text fill="#0F172A" font-family="sans-serif" font-size="13" lengthAdjust="spacing" textLength="79.7075" x="2966.7629" y="280.4306">d'inscription</text></g><!--entity Visiteur--><g class="entity" data-qualified-name="Visiteur" data-source-line="32" id="ent0001"><ellipse cx="4037.6141" cy="244.7169" fill="#E2E8F0" rx="16" ry="16" style="stroke:#334155;stroke-width:0.5;"/><path d="M4037.6141,264.7169 C4041.6141,264.7169 4044.6141,264.7169 4048.6141,260.7169 C4056.6141,260.7169 4064.6141,268.7169 4064.6141,276.7169 L4064.6141,280.7169 C4064.6141,284.7169 4060.6141,288.7169 4056.6141,288.7169 L4018.6141,288.7169 C4014.6141,288.7169 4010.6141,284.7169 4010.6141,280.7169 L4010.6141,276.7169 C4010.6141,268.7169 4018.6141,260.7169 4026.6141,260.7169 C4030.6141,264.7169 4033.6141,264.7169 4037.6141,264.7169" fill="#E2E8F0" style="stroke:#334155;stroke-width:0.5;"/><text fill="#000000" font-family="sans-serif" font-size="13" font-weight="700" lengthAdjust="spacing" textLength="57.4082" x="4008.91" y="301.2838">Visiteur</text></g><!--entity Etudiant--><g class="entity" data-qualified-name="Etudiant" data-source-line="33" id="ent0002"><ellipse cx="1040.6165" cy="59.2969" fill="#E2E8F0" rx="16" ry="16" style="stroke:#334155;stroke-width:0.5;"/><path d="M1040.6165,79.2969 C1044.6165,79.2969 1047.6165,79.2969 1051.6165,75.2969 C1059.6165,75.2969 1067.6165,83.2969 1067.6165,91.2969 L1067.6165,95.2969 C1067.6165,99.2969 1063.6165,103.2969 1059.6165,103.2969 L1021.6165,103.2969 C1017.6165,103.2969 1013.6165,99.2969 1013.6165,95.2969 L1013.6165,91.2969 C1013.6165,83.2969 1021.6165,75.2969 1029.6165,75.2969 C1033.6165,79.2969 1036.6165,79.2969 1040.6165,79.2969" fill="#E2E8F0" style="stroke:#334155;stroke-width:0.5;"/><text fill="#000000" font-family="sans-serif" font-size="13" font-weight="700" lengthAdjust="spacing" textLength="62.353" x="1009.44" y="115.8638">&#201;tudiant</text></g><!--entity Entreprise--><g class="entity" data-qualified-name="Entreprise" data-source-line="34" id="ent0003"><ellipse cx="2235.6126" cy="59.2969" fill="#E2E8F0" rx="16" ry="16" style="stroke:#334155;stroke-width:0.5;"/><path d="M2235.6126,79.2969 C2239.6126,79.2969 2242.6126,79.2969 2246.6126,75.2969 C2254.6126,75.2969 2262.6126,83.2969 2262.6126,91.2969 L2262.6126,95.2969 C2262.6126,99.2969 2258.6126,103.2969 2254.6126,103.2969 L2216.6126,103.2969 C2212.6126,103.2969 2208.6126,99.2969 2208.6126,95.2969 L2208.6126,91.2969 C2208.6126,83.2969 2216.6126,75.2969 2224.6126,75.2969 C2228.6126,79.2969 2231.6126,79.2969 2235.6126,79.2969" fill="#E2E8F0" style="stroke:#334155;stroke-width:0.5;"/><text fill="#000000" font-family="sans-serif" font-size="13" font-weight="700" lengthAdjust="spacing" textLength="76.3052" x="2197.46" y="115.8638">Entreprise</text></g><!--entity Admin--><g class="entity" data-qualified-name="Admin" data-source-line="35" id="ent0004"><ellipse cx="3006.6163" cy="59.2969" fill="#E2E8F0" rx="16" ry="16" style="stroke:#334155;stroke-width:0.5;"/><path d="M3006.6163,79.2969 C3010.6163,79.2969 3013.6163,79.2969 3017.6163,75.2969 C3025.6163,75.2969 3033.6163,83.2969 3033.6163,91.2969 L3033.6163,95.2969 C3033.6163,99.2969 3029.6163,103.2969 3025.6163,103.2969 L2987.6163,103.2969 C2983.6163,103.2969 2979.6163,99.2969 2979.6163,95.2969 L2979.6163,91.2969 C2979.6163,83.2969 2987.6163,75.2969 2995.6163,75.2969 C2999.6163,79.2969 3002.6163,79.2969 3006.6163,79.2969" fill="#E2E8F0" style="stroke:#334155;stroke-width:0.5;"/><text fill="#000000" font-family="sans-serif" font-size="13" font-weight="700" lengthAdjust="spacing" textLength="110.9126" x="2951.16" y="115.8638">Administrateur</text></g><!--entity ServiceIA--><g class="entity" data-qualified-name="ServiceIA" data-source-line="36" id="ent0005"><ellipse cx="46.6155" cy="408.9797" fill="#E2E8F0" rx="16" ry="16" style="stroke:#334155;stroke-width:0.5;"/><path d="M46.6155,428.9797 C50.6155,428.9797 53.6155,428.9797 57.6155,424.9797 C65.6155,424.9797 73.6155,432.9797 73.6155,440.9797 L73.6155,444.9797 C73.6155,448.9797 69.6155,452.9797 65.6155,452.9797 L27.6155,452.9797 C23.6155,452.9797 19.6155,448.9797 19.6155,444.9797 L19.6155,440.9797 C19.6155,432.9797 27.6155,424.9797 35.6155,424.9797 C39.6155,428.9797 42.6155,428.9797 46.6155,428.9797" fill="#E2E8F0" style="stroke:#334155;stroke-width:0.5;"/><text fill="#000000" font-family="sans-serif" font-size="13" font-weight="700" lengthAdjust="spacing" textLength="73.4678" x="6" y="465.5466">Service IA</text><text fill="#000000" font-family="sans-serif" font-size="13" font-weight="700" lengthAdjust="spacing" textLength="81.231" x="6" y="480.6794">(Groq LLM)</text><text fill="#000000" font-family="sans-serif" font-size="13" font-weight="700" lengthAdjust="spacing" textLength="69.3228" x="11.9541" y="389.4138">&#171;system&#187;</text></g><!--link Visiteur to UC_pub--><g class="link" data-entity-1="ent0001" data-entity-2="ent0008" data-link-type="dependency" data-source-line="73" id="lnk31"><path d="M4008.56,268.2569 C3918.18,271.9769 3634.86,288.9869 3413.62,360.4069 C3380.48,371.0969 3349.9307,386.8306 3324.0707,401.8906" fill="none" id="Visiteur-to-UC_pub" style="stroke:#475569;stroke-width:1;"/><polygon fill="#475569" points="3319.75,404.4069,3329.5403,403.3342,3324.0707,401.8906,3325.5143,396.4211,3319.75,404.4069" style="stroke:#475569;stroke-width:1;stroke-linejoin:miter;stroke-miterlimit:10;"/></g><!--link Visiteur to UC_register--><g class="link" data-entity-1="ent0001" data-entity-2="ent0009" data-link-type="dependency" data-source-line="74" id="lnk32"><path d="M4008.41,276.7369 C3965.72,291.2469 3884.62,321.4669 3822.62,360.4069 C3797.74,376.0269 3776.2629,395.6088 3760.9829,410.7388" fill="none" id="Visiteur-to-UC_register" style="stroke:#475569;stroke-width:1;"/><polygon fill="#475569" points="3757.43,414.2569,3766.6397,410.7667,3760.9829,410.7388,3761.0108,405.082,3757.43,414.2569" style="stroke:#475569;stroke-width:1;stroke-linejoin:miter;stroke-miterlimit:10;"/></g><!--link Visiteur to UC_login--><g class="link" data-entity-1="ent0001" data-entity-2="ent0010" data-link-type="dependency" data-source-line="75" id="lnk33"><path d="M4008.62,299.7269 C3976.72,335.4269 3930.322,387.3589 3907.772,412.5889" fill="none" id="Visiteur-to-UC_login" style="stroke:#475569;stroke-width:1;"/><polygon fill="#475569" points="3904.44,416.3169,3913.42,412.2721,3907.772,412.5889,3907.4552,406.9409,3904.44,416.3169" style="stroke:#475569;stroke-width:1;stroke-linejoin:miter;stroke-miterlimit:10;"/></g><!--link Visiteur to UC_pref--><g class="link" data-entity-1="ent0001" data-entity-2="ent0012" data-link-type="dependency" data-source-line="76" id="lnk34"><path d="M4008.59,271.7869 C3944.51,282.3069 3786.78,311.3869 3662.62,360.4069 C3631.67,372.6269 3603.129,388.5675 3579.049,403.3775" fill="none" id="Visiteur-to-UC_pref" style="stroke:#475569;stroke-width:1;"/><polygon fill="#475569" points="3574.79,405.9969,3584.5516,404.6891,3579.049,403.3775,3580.3606,397.8748,3574.79,405.9969" style="stroke:#475569;stroke-width:1;stroke-linejoin:miter;stroke-miterlimit:10;"/></g><!--link Etudiant to UC_profile--><g class="link" data-entity-1="ent0002" data-entity-2="ent0014" data-link-type="dependency" data-source-line="78" id="lnk35"><path d="M1072.03,103.0769 C1092.44,117.2969 1119.31,136.8469 1141.62,155.9369 C1174.97,184.4669 1207.0283,217.351 1228.3983,240.121" fill="none" id="Etudiant-to-UC_profile" style="stroke:#475569;stroke-width:1;"/><polygon fill="#475569" points="1231.82,243.7669,1228.5777,234.467,1228.3983,240.121,1222.7443,239.9417,1231.82,243.7669" style="stroke:#475569;stroke-width:1;stroke-linejoin:miter;stroke-miterlimit:10;"/></g><!--link Etudiant to UC_enrollReq--><g class="link" data-entity-1="ent0002" data-entity-2="ent0015" data-link-type="dependency" data-source-line="79" id="lnk36"><path d="M1072.26,83.4869 C1132.24,87.7569 1265.12,102.9269 1361.62,155.9369 C1401.45,177.8169 1433.7219,214.1266 1453.3219,239.2166" fill="none" id="Etudiant-to-UC_enrollReq" style="stroke:#475569;stroke-width:1;"/><polygon fill="#475569" points="1456.4,243.1569,1454.0117,233.602,1453.3219,239.2166,1447.7073,238.5269,1456.4,243.1569" style="stroke:#475569;stroke-width:1;stroke-linejoin:miter;stroke-miterlimit:10;"/></g><!--link Etudiant to UC_apply--><g class="link" data-entity-1="ent0002" data-entity-2="ent0016" data-link-type="dependency" data-source-line="80" id="lnk37"><path d="M1072.26,83.6369 C1174.06,89.7069 1491.85,111.8469 1583.62,155.9369 C1625.33,175.9769 1658.734,212.8728 1678.894,238.5728" fill="none" id="Etudiant-to-UC_apply" style="stroke:#475569;stroke-width:1;"/><polygon fill="#475569" points="1681.98,242.5069,1679.5724,232.9568,1678.894,238.5728,1673.278,237.8944,1681.98,242.5069" style="stroke:#475569;stroke-width:1;stroke-linejoin:miter;stroke-miterlimit:10;"/></g><!--link Etudiant to UC_track--><g class="link" data-entity-1="ent0002" data-entity-2="ent0017" data-link-type="dependency" data-source-line="81" id="lnk38"><path d="M1009.17,82.2869 C888.81,84.3369 458.15,95.8269 337.62,155.9369 C296.96,176.2069 266.9449,215.6647 250.3049,241.2647" fill="none" id="Etudiant-to-UC_track" style="stroke:#475569;stroke-width:1;"/><polygon fill="#475569" points="247.58,245.4569,255.8387,240.0908,250.3049,241.2647,249.1311,235.7309,247.58,245.4569" style="stroke:#475569;stroke-width:1;stroke-linejoin:miter;stroke-miterlimit:10;"/></g><!--link Etudiant to UC_interview--><g class="link" data-entity-1="ent0002" data-entity-2="ent0018" data-link-type="dependency" data-source-line="82" id="lnk39"><path d="M1009.13,83.4369 C910.09,88.8169 606.48,108.8469 521.62,155.9369 C482.78,177.4769 455.751,218.0101 441.511,243.0601" fill="none" id="Etudiant-to-UC_interview" style="stroke:#475569;stroke-width:1;"/><polygon fill="#475569" points="439.04,247.4069,446.9652,241.5595,441.511,243.0601,440.0103,237.6059,439.04,247.4069" style="stroke:#475569;stroke-width:1;stroke-linejoin:miter;stroke-miterlimit:10;"/></g><!--link Etudiant to UC_msg--><g class="link" data-entity-1="ent0002" data-entity-2="ent0019" data-link-type="dependency" data-source-line="83" id="lnk40"><path d="M1072.17,81.7769 C1200.33,81.8869 1681.38,86.9569 1813.62,155.9369 C1853.17,176.5669 1880.4247,217.4512 1894.7147,242.8012" fill="none" id="Etudiant-to-UC_msg" style="stroke:#475569;stroke-width:1;"/><polygon fill="#475569" points="1897.17,247.1569,1896.235,237.3525,1894.7147,242.8012,1889.266,241.281,1897.17,247.1569" style="stroke:#475569;stroke-width:1;stroke-linejoin:miter;stroke-miterlimit:10;"/></g><!--link Etudiant to UC_notif--><g class="link" data-entity-1="ent0002" data-entity-2="ent0020" data-link-type="dependency" data-source-line="84" id="lnk41"><path d="M1009.41,82.8469 C948.98,86.0069 813.51,99.3869 717.62,155.9369 C679.19,178.5869 650.2337,217.1803 634.0337,241.9903" fill="none" id="Etudiant-to-UC_notif" style="stroke:#475569;stroke-width:1;"/><polygon fill="#475569" points="631.3,246.1769,639.5698,240.828,634.0337,241.9903,632.8713,236.4542,631.3,246.1769" style="stroke:#475569;stroke-width:1;stroke-linejoin:miter;stroke-miterlimit:10;"/></g><!--link Etudiant to UC_ai--><g class="link" data-entity-1="ent0002" data-entity-2="ent0021" data-link-type="dependency" data-source-line="85" id="lnk42"><path d="M1009.23,103.1069 C988.83,117.3469 961.97,136.9069 939.62,155.9369 C906.04,184.5169 873.6619,217.4101 852.0719,240.1601" fill="none" id="Etudiant-to-UC_ai" style="stroke:#475569;stroke-width:1;"/><polygon fill="#475569" points="848.63,243.7869,857.7268,240.0121,852.0719,240.1601,851.9239,234.5052,848.63,243.7869" style="stroke:#475569;stroke-width:1;stroke-linejoin:miter;stroke-miterlimit:10;"/></g><!--link Etudiant to UC_settings--><g class="link" data-entity-1="ent0002" data-entity-2="ent0022" data-link-type="dependency" data-source-line="86" id="lnk43"><path d="M1040.62,119.4269 C1040.62,156.0069 1040.62,205.4869 1040.62,236.4669" fill="none" id="Etudiant-to-UC_settings" style="stroke:#475569;stroke-width:1;"/><polygon fill="#475569" points="1040.62,241.4669,1044.62,232.4669,1040.62,236.4669,1036.62,232.4669,1040.62,241.4669" style="stroke:#475569;stroke-width:1;stroke-linejoin:miter;stroke-miterlimit:10;"/></g><!--link Entreprise to UC_offers--><g class="link" data-entity-1="ent0003" data-entity-2="ent0024" data-link-type="dependency" data-source-line="88" id="lnk44"><path d="M2216.37,119.4269 C2197.03,157.1569 2170.2099,209.4869 2154.6399,239.8769" fill="none" id="Entreprise-to-UC_offers" style="stroke:#475569;stroke-width:1;"/><polygon fill="#475569" points="2152.36,244.3269,2160.0238,238.1409,2154.6399,239.8769,2152.9038,234.493,2152.36,244.3269" style="stroke:#475569;stroke-width:1;stroke-linejoin:miter;stroke-miterlimit:10;"/></g><!--link Entreprise to UC_manageApp--><g class="link" data-entity-1="ent0003" data-entity-2="ent0025" data-link-type="dependency" data-source-line="89" id="lnk45"><path d="M2262.24,119.4269 C2288.38,156.3169 2324.548,207.3481 2346.408,238.1781" fill="none" id="Entreprise-to-UC_manageApp" style="stroke:#475569;stroke-width:1;"/><polygon fill="#475569" points="2349.3,242.2569,2347.3573,232.6015,2346.408,238.1781,2340.8313,237.2288,2349.3,242.2569" style="stroke:#475569;stroke-width:1;stroke-linejoin:miter;stroke-miterlimit:10;"/></g><!--link Entreprise to UC_manageInt--><g class="link" data-entity-1="ent0003" data-entity-2="ent0026" data-link-type="dependency" data-source-line="90" id="lnk46"><path d="M2273.9,86.1169 C2325.37,93.3569 2417.97,111.8169 2483.62,155.9369 C2519.82,180.2569 2545.9202,219.6966 2559.8502,243.8266" fill="none" id="Entreprise-to-UC_manageInt" style="stroke:#475569;stroke-width:1;"/><polygon fill="#475569" points="2562.35,248.1569,2561.3145,238.3626,2559.8502,243.8266,2554.3862,242.3623,2562.35,248.1569" style="stroke:#475569;stroke-width:1;stroke-linejoin:miter;stroke-miterlimit:10;"/></g><!--link Entreprise to UC_msg--><g class="link" data-entity-1="ent0003" data-entity-2="ent0019" data-link-type="dependency" data-source-line="91" id="lnk47"><path d="M2197.12,91.3769 C2154.86,102.8269 2085.95,124.5169 2032.62,155.9369 C1988.69,181.8069 1949.063,220.1707 1926.423,243.8807" fill="none" id="Entreprise-to-UC_msg" style="stroke:#475569;stroke-width:1;"/><polygon fill="#475569" points="1922.97,247.4969,1932.0783,243.7501,1926.423,243.8807,1926.2924,238.2253,1922.97,247.4969" style="stroke:#475569;stroke-width:1;stroke-linejoin:miter;stroke-miterlimit:10;"/></g><!--link Admin to UC_dash--><g class="link" data-entity-1="ent0004" data-entity-2="ent0028" data-link-type="dependency" data-source-line="93" id="lnk48"><path d="M2950.9,119.0469 C2935.15,130.3169 2918.31,143.1269 2903.62,155.9369 C2872.02,183.4769 2842.5802,215.542 2822.4802,238.542" fill="none" id="Admin-to-UC_dash" style="stroke:#475569;stroke-width:1;"/><polygon fill="#475569" points="2819.19,242.3069,2828.1243,238.1622,2822.4802,238.542,2822.1004,232.8979,2819.19,242.3069" style="stroke:#475569;stroke-width:1;stroke-linejoin:miter;stroke-miterlimit:10;"/></g><!--link Admin to UC_formations--><g class="link" data-entity-1="ent0004" data-entity-2="ent0029" data-link-type="dependency" data-source-line="94" id="lnk49"><path d="M3062.47,108.3269 C3080.93,120.1169 3099.37,135.9369 3109.62,155.9369 C3141.79,218.6969 3133.84,248.3869 3109.62,314.6269 C3095.63,352.8869 3066.4091,383.8673 3042.7891,404.8373" fill="none" id="Admin-to-UC_formations" style="stroke:#475569;stroke-width:1;"/><polygon fill="#475569" points="3039.05,408.1569,3048.4359,405.1729,3042.7891,404.8373,3043.1247,399.1904,3039.05,408.1569" style="stroke:#475569;stroke-width:1;stroke-linejoin:miter;stroke-miterlimit:10;"/></g><!--link Admin to UC_reqAdmin--><g class="link" data-entity-1="ent0004" data-entity-2="ent0030" data-link-type="dependency" data-source-line="95" id="lnk50"><path d="M3006.62,119.4269 C3006.62,156.7369 3006.62,207.6769 3006.62,238.3069" fill="none" id="Admin-to-UC_reqAdmin" style="stroke:#475569;stroke-width:1;"/><polygon fill="#475569" points="3006.62,243.3069,3010.62,234.3069,3006.62,238.3069,3002.62,234.3069,3006.62,243.3069" style="stroke:#475569;stroke-width:1;stroke-linejoin:miter;stroke-miterlimit:10;"/></g><!--link UC_register to UC_verify--><g class="link" data-entity-1="ent0009" data-entity-2="ent0011" data-link-type="dependency" data-source-line="97" id="lnk51"><path d="M3748.93,447.1469 C3759.63,473.5869 3779.4541,522.5721 3791.3941,552.0721" fill="none" id="UC_register-to-UC_verify" style="stroke:#475569;stroke-width:1;stroke-dasharray:7,7;"/><polygon fill="#475569" points="3793.27,556.7069,3793.6012,546.8636,3791.3941,552.0721,3786.1856,549.865,3793.27,556.7069" style="stroke:#475569;stroke-width:1;stroke-linejoin:miter;stroke-miterlimit:10;"/><text fill="#000000" font-family="sans-serif" font-size="13" lengthAdjust="spacing" textLength="63.0068" x="3781.85" y="524.8138">&#171;include&#187;</text></g><!--link UC_login to UC_verify--><g class="link" data-entity-1="ent0010" data-entity-2="ent0011" data-link-type="dependency" data-source-line="98" id="lnk52"><path d="M3888.33,445.2269 C3881.82,464.8069 3868.21,501.4469 3849.62,528.7469 C3842.67,538.9369 3837.0505,545.3975 3828.5405,553.5975" fill="none" id="UC_login-to-UC_verify" style="stroke:#475569;stroke-width:1;stroke-dasharray:7,7;"/><polygon fill="#475569" points="3824.94,557.0669,3834.1964,553.7025,3828.5405,553.5975,3828.6454,547.9416,3824.94,557.0669" style="stroke:#475569;stroke-width:1;stroke-linejoin:miter;stroke-miterlimit:10;"/><text fill="#000000" font-family="sans-serif" font-size="13" lengthAdjust="spacing" textLength="63.0068" x="3859.74" y="524.8138">&#171;include&#187;</text></g><!--link UC_enrollReq to UC_pub--><g class="link" data-entity-1="ent0015" data-entity-2="ent0008" data-link-type="dependency" data-source-line="99" id="lnk53"><path d="M1511.5,288.0769 C1532.28,298.0869 1558.66,309.0969 1583.62,314.6269 C1810.67,364.9769 2397.13,342.8269 2629.62,349.3469 C2683.28,350.8569 3060.09,349.3369 3112.62,360.4069 C3155.3,369.3969 3196.3704,386.806 3229.1104,402.856" fill="none" id="UC_enrollReq-to-UC_pub" style="stroke:#475569;stroke-width:1;stroke-dasharray:7,7;"/><polygon fill="#475569" points="3233.6,405.0569,3227.2795,397.5036,3229.1104,402.856,3223.7581,404.6869,3233.6,405.0569" style="stroke:#475569;stroke-width:1;stroke-linejoin:miter;stroke-miterlimit:10;"/><text fill="#000000" font-family="sans-serif" font-size="13" lengthAdjust="spacing" textLength="61.1851" x="2630.62" y="345.4138">&#171;extend&#187;</text></g><!--link UC_ai to ServiceIA--><g class="link" data-entity-1="ent0021" data-entity-2="ent0005" data-link-type="association" data-source-line="100" id="lnk54"><path d="M787.82,287.3969 C767.2,296.8569 741.53,307.5869 717.62,314.6269 C484.63,383.2469 193.32,415.7469 87.45,425.9069" fill="none" id="UC_ai-ServiceIA" style="stroke:#475569;stroke-width:1;"/></g><!--link UC_reqAdmin to UC_formations--><g class="link" data-entity-1="ent0030" data-entity-2="ent0029" data-link-type="dependency" data-source-line="101" id="lnk55"><path d="M3007.42,289.1669 C3008.56,319.9669 3010.4457,370.8003 3011.5957,401.9703" fill="none" id="UC_reqAdmin-to-UC_formations" style="stroke:#475569;stroke-width:1;stroke-dasharray:7,7;"/><polygon fill="#475569" points="3011.78,406.9669,3015.4455,397.8255,3011.5957,401.9703,3007.4509,398.1205,3011.78,406.9669" style="stroke:#475569;stroke-width:1;stroke-linejoin:miter;stroke-miterlimit:10;"/><text fill="#000000" font-family="sans-serif" font-size="13" lengthAdjust="spacing" textLength="61.1851" x="3010.62" y="345.4138">&#171;extend&#187;</text></g><g class="legend" data-source-line="103"><rect fill="none" height="62.8906" rx="7.5" ry="7.5" style="stroke:#000000;stroke-width:1;" width="637.7031" x="3424.6151" y="659.9069"/><text fill="#000000" font-family="sans-serif" font-size="14" font-weight="700" lengthAdjust="spacing" textLength="37.5225" x="3434.4891" y="679.902">Note</text><text fill="#000000" font-family="sans-serif" font-size="14" lengthAdjust="spacing" textLength="541.7139" x="3434.0653" y="696.1989">Un service d'emails (Nodemailer) est &#233;galement sollicit&#233; en arri&#232;re-plan par :</text><text fill="#000000" font-family="sans-serif" font-size="14" lengthAdjust="spacing" textLength="618.8027" x="3434.0653" y="712.4957">Cr&#233;er un compte, V&#233;rifier son email, G&#233;rer les candidatures re&#231;ues, G&#233;rer les entretiens</text><line style="stroke:#000000;stroke-width:1;" x1="3429.6151" x2="4057.3182" y1="666.9069" y2="666.9069"/><line style="stroke:#000000;stroke-width:1;" x1="3429.6151" x2="4057.3182" y1="683.2038" y2="683.2038"/><line style="stroke:#000000;stroke-width:1;" x1="3429.6151" x2="4057.3182" y1="699.5006" y2="699.5006"/><line style="stroke:#000000;stroke-width:1;" x1="3429.6151" x2="4057.3182" y1="715.7975" y2="715.7975"/><line style="stroke:#000000;stroke-width:1;" x1="3429.6151" x2="3429.6151" y1="666.9069" y2="715.7975"/><line style="stroke:#000000;stroke-width:1;" x1="4057.3182" x2="4057.3182" y1="666.9069" y2="715.7975"/></g><?plantuml-src XLRDRjj64BxpAGRkmGvW9_vJt1Qf0TgM30E94LYMJmAADJcY5bxkqhjBAquJeDVSym2zrNuElacVfBEabd-o4Wa2oFd_-MP6vexBZ6cMmYsBxXAjSXcVAg4q_38gFu6f9LXabHxRHu705cXKYYrcHkeimOgjCR9C9g8jOEOiLWik4vWnOTgSt6343C9V0S39IXI3qH55GHobOzHBwk7eyErmGDHGQxNmnAF1uErlH1mfQPUqtT7UqNwuf8tvPuIzW-1hFwdATTl1mS7Xtc3mKa33_U6lerrliKptLedu1oxgQgowgVDOpJkaxsYTcwNGtd3lvF2au_gmu_g5yZHCgM8qcC7-RZjO9kySaP8FBBVazeopX3WfGen0ZO9uCxTSSCCiLn8IeMwPWF_-_WvZImWO2RK8Wggi6pVSS8kvtW3Iyo-UMNopUSoPj2Ltk7pntA6q6ZFD3LRi-jKBX77A9JTMizf3IVByCUe77Y5SX5EvTQxLFRn__-5LARTaNOJmxfrvD1RJu-CWQFgqKMUoGJsZ-hPOOHGLJmQo_5RmgBJsSN9ITXPg96-SAcboOL63G98bOqkD-nmDXSEYA4Skjc6cT5hMqMo3ciqqcYh2oUcV9DypgejdifXBY5IQMVI26XCg0-gkz9YQfQIam55xIQ4Igaz7xAPurdp6oQwXPhAO8Y0ofemBh_M09F7OLVk8ckGb8nYu93VPRCQZEUL9oGcgL8umkdepl7mJNcs3dHTFAJQ9QPoHjQ-zmWuDxH247Ygk9_tQdbF4v3EbS3EjPbm0slBjzARnuEZOrJkZf6HSHikbYJJFNDsdilY7IefD9xmHb5e9SONtNJDN6CrHkv_pcobZSu5wAbd-QTb1DoV60SXRObacUlKRv_n18wGa7L5KF6Os9rMlGQ2ExbvEcpJGpOBbA6jvBgs3D2wwEfDoJbtAp2aQYadpEgpK96jTI6K95L45JQzG4jTvs6J640ofSJHni3KEpuTrnnbVsy8AobFfUbYE2gsQuicsQc7GMZeRPZra-glYydeTPiZ3cXuHcI3zefReDOaYAFxDcm09LcGepBArsgiDgtGkQDsjPjLQR1wEuTc77wqOiEnM8CkdX6yw4pfskLaouVQDTnapCryJ8QLd6Is774iBpLBokWsbQ-5QC-wtN5pD5wstk3rWpPQwhzQpIvXIzjS0TdQE_Rhhq-hDrcTKYsp5X5iiWJya3RLQ1drwCzzzJZMlVMeratrgCtbzZXklFgsQe1L_V8LKWpvemErvIwYkCXeWhkCvmBt0eqY3iZcUKcAbGsaXe4Elsngq-WMlNnytbmD-fpFBPIJo6EdE-lRzJAZkZnSaX9HI-CcYZ2iXnYcGvfu7hOYyMXDvLpiGcD0JQ9xCtHX--GCkbKNuufvX8i4i_q34c-KvDB1rgUBo4VKhG6EXU4wOm9J6cwwdeFy3t1RFDEt0jER5ayQTZ8wXMshakhBRF-BRqBt0fVrj-CdgwGWqsuLyK4PLNi7_?></g></svg>