<svg xmlns="http://www.w3.org/2000/svg" xmlns:xlink="http://www.w3.org/1999/xlink" contentStyleType="text/css" data-diagram-type="DESCRIPTION" height="411px" preserveAspectRatio="none" style="width:2088px;height:411px;background:#FFFFFF;" version="1.1" viewBox="0 0 2088 411" width="2088px" zoomAndPan="magnify"><?plantuml 1.2026.6?><defs/><g><g class="title" data-source-line="26"><text fill="#000000" font-family="sans-serif" font-size="14" font-weight="700" lengthAdjust="spacing" textLength="509.667" x="785.6665" y="22.9951">Diagramme de cas d'utilisation d&#233;taill&#233; &#8212; Visiteur (acc&#232;s public)</text></g><!--cluster Acc?s public (sans authentification)--><g class="cluster" data-qualified-name="Acc.s public .sans authentification." data-source-line="30" id="ent0002"><rect fill="#FAFAFF" height="230.18" rx="2.5" ry="2.5" style="stroke:#4F46E5;stroke-width:1;" width="2067" x="7" y="167.0969"/><text fill="#1E1B4B" font-family="sans-serif" font-size="14" font-weight="700" lengthAdjust="spacing" textLength="283.4043" x="898.7979" y="182.092">Acc&#232;s public (sans authentification)</text></g><!--entity UC1--><g class="entity" data-qualified-name="Acc.s public .sans authentification..UC1" data-source-line="31" id="ent0003"><ellipse cx="121.997" cy="228.9943" fill="#F5F7FF" rx="98.937" ry="22.1874" style="stroke:#4F46E5;stroke-width:0.5;"/><text fill="#0F172A" font-family="sans-serif" font-size="13" lengthAdjust="spacing" textLength="176.3252" x="33.8344" y="233.0607">Consulter la page d'accueil</text></g><!--entity UC2--><g class="entity" data-qualified-name="Acc.s public .sans authentification..UC2" data-source-line="32" id="ent0004"><ellipse cx="361.9982" cy="228.9945" fill="#F5F7FF" rx="105.7382" ry="23.5476" style="stroke:#4F46E5;stroke-width:0.5;"/><text fill="#0F172A" font-family="sans-serif" font-size="13" lengthAdjust="spacing" textLength="155.6191" x="284.1886" y="227.2097">Parcourir les formations</text><text fill="#0F172A" font-family="sans-serif" font-size="13" lengthAdjust="spacing" textLength="117.6221" x="303.1871" y="242.3425">(catalogue public)</text></g><!--entity UC3--><g class="entity" data-qualified-name="Acc.s public .sans authentification..UC3" data-source-line="33" id="ent0005"><ellipse cx="624.9959" cy="228.9981" fill="#F5F7FF" rx="122.5059" ry="26.9012" style="stroke:#4F46E5;stroke-width:0.5;"/><text fill="#0F172A" font-family="sans-serif" font-size="13" lengthAdjust="spacing" textLength="226.7192" x="511.6363" y="233.0645">Consulter le d&#233;tail d'une formation</text></g><!--entity UC4--><g class="entity" data-qualified-name="Acc.s public .sans authentification..UC4" data-source-line="34" id="ent0006"><ellipse cx="895.003" cy="229.0015" fill="#F5F7FF" rx="112.173" ry="24.8346" style="stroke:#4F46E5;stroke-width:0.5;"/><text fill="#0F172A" font-family="sans-serif" font-size="13" lengthAdjust="spacing" textLength="183.2632" x="803.3714" y="228.7643">Parcourir les offres de stage</text><text fill="#0F172A" font-family="sans-serif" font-size="13" lengthAdjust="spacing" textLength="117.6221" x="836.192" y="243.8971">(catalogue public)</text></g><!--entity UC5--><g class="entity" data-qualified-name="Acc.s public .sans authentification..UC5" data-source-line="35" id="ent0007"><ellipse cx="1148.9958" cy="228.998" fill="#F5F7FF" rx="107.0058" ry="23.8012" style="stroke:#4F46E5;stroke-width:0.5;"/><text fill="#0F172A" font-family="sans-serif" font-size="13" lengthAdjust="spacing" textLength="193.7622" x="1052.1147" y="233.0644">Consulter le d&#233;tail d'une offre</text></g><!--entity UC6--><g class="entity" data-qualified-name="Acc.s public .sans authentification..UC6" data-source-line="36" id="ent0008"><ellipse cx="1395.9974" cy="228.9944" fill="#F5F7FF" rx="104.8874" ry="23.3775" style="stroke:#4F46E5;stroke-width:0.5;"/><text fill="#0F172A" font-family="sans-serif" font-size="13" lengthAdjust="spacing" textLength="109.6177" x="1341.1886" y="223.4492">Cr&#233;er un compte</text><text fill="#0F172A" font-family="sans-serif" font-size="13" lengthAdjust="spacing" textLength="156.1904" x="1317.9022" y="238.582">(&#201;tudiant ou Entreprise)</text></g><!--entity UC7--><g class="entity" data-qualified-name="Acc.s public .sans authentification..UC7" data-source-line="37" id="ent0009"><ellipse cx="1472.0028" cy="357.0874" fill="#F5F7FF" rx="108.9528" ry="24.1906" style="stroke:#4F46E5;stroke-width:0.5;"/><text fill="#0F172A" font-family="sans-serif" font-size="13" lengthAdjust="spacing" textLength="169.6982" x="1387.1537" y="356.0291">V&#233;rifier son adresse email</text><text fill="#0F172A" font-family="sans-serif" font-size="13" lengthAdjust="spacing" textLength="118.3965" x="1412.8046" y="371.1619">(code &#224; 6 chiffres)</text></g><!--entity UC8--><g class="entity" data-qualified-name="Acc.s public .sans authentification..UC8" data-source-line="38" id="ent0010"><ellipse cx="1596.0039" cy="228.9976" fill="#F5F7FF" rx="60.1039" ry="14.4208" style="stroke:#4F46E5;stroke-width:0.5;"/><text fill="#0F172A" font-family="sans-serif" font-size="13" lengthAdjust="spacing" textLength="85.5474" x="1553.2302" y="233.0641">Se connecter</text></g><!--entity UC9--><g class="entity" data-qualified-name="Acc.s public .sans authentification..UC9" data-source-line="39" id="ent0011"><ellipse cx="1774.0025" cy="228.9999" fill="#F5F7FF" rx="82.6525" ry="23.2131" style="stroke:#4F46E5;stroke-width:0.5;"/><text fill="#0F172A" font-family="sans-serif" font-size="13" lengthAdjust="spacing" textLength="119.2661" x="1714.3695" y="227.2325">Changer la langue</text><text fill="#0F172A" font-family="sans-serif" font-size="13" lengthAdjust="spacing" textLength="87.8071" x="1730.099" y="242.3653">(FR / EN / AR)</text></g><!--entity UC10--><g class="entity" data-qualified-name="Acc.s public .sans authentification..UC10" data-source-line="40" id="ent0012"><ellipse cx="1974.9969" cy="228.9995" fill="#F5F7FF" rx="82.9069" ry="23.6726" style="stroke:#4F46E5;stroke-width:0.5;"/><text fill="#0F172A" font-family="sans-serif" font-size="13" lengthAdjust="spacing" textLength="116.9873" x="1916.5033" y="226.5484">Changer le th&#232;me</text><text fill="#0F172A" font-family="sans-serif" font-size="13" lengthAdjust="spacing" textLength="99.4551" x="1925.2694" y="241.6813">(clair / sombre)</text></g><!--entity Visiteur--><g class="entity" data-qualified-name="Visiteur" data-source-line="28" id="ent0001"><ellipse cx="1149.0021" cy="59.2969" fill="#E2E8F0" rx="16" ry="16" style="stroke:#334155;stroke-width:0.5;"/><path d="M1149.0021,79.2969 C1153.0021,79.2969 1156.0021,79.2969 1160.0021,75.2969 C1168.0021,75.2969 1176.0021,83.2969 1176.0021,91.2969 L1176.0021,95.2969 C1176.0021,99.2969 1172.0021,103.2969 1168.0021,103.2969 L1130.0021,103.2969 C1126.0021,103.2969 1122.0021,99.2969 1122.0021,95.2969 L1122.0021,91.2969 C1122.0021,83.2969 1130.0021,75.2969 1138.0021,75.2969 C1142.0021,79.2969 1145.0021,79.2969 1149.0021,79.2969" fill="#E2E8F0" style="stroke:#334155;stroke-width:0.5;"/><text fill="#000000" font-family="sans-serif" font-size="14" font-weight="700" lengthAdjust="spacing" textLength="61.8242" x="1118.09" y="116.792">Visiteur</text></g><!--link Visiteur to UC1--><g class="link" data-entity-1="ent0001" data-entity-2="ent0003" data-link-type="dependency" data-source-line="43" id="lnk13"><path d="M1117.83,83.2169 C978.02,86.9469 408.21,105.2369 239,159.0969 C205.76,169.6769 175.9127,188.1463 153.2227,204.3063" fill="none" id="Visiteur-to-UC1" style="stroke:#475569;stroke-width:1;"/><polygon fill="#475569" points="149.15,207.2069,158.8013,205.244,153.2227,204.3063,154.1603,198.7277,149.15,207.2069" style="stroke:#475569;stroke-width:1;stroke-linejoin:miter;stroke-miterlimit:10;"/></g><!--link Visiteur to UC2--><g class="link" data-entity-1="ent0001" data-entity-2="ent0004" data-link-type="dependency" data-source-line="44" id="lnk14"><path d="M1117.64,81.7469 C1020.83,80.5069 719.08,83.3969 485,159.0969 C451.58,169.8969 421.1541,187.4843 397.1941,203.2843" fill="none" id="Visiteur-to-UC2" style="stroke:#475569;stroke-width:1;"/><polygon fill="#475569" points="393.02,206.0369,402.7355,204.4216,397.1941,203.2843,398.3314,197.743,393.02,206.0369" style="stroke:#475569;stroke-width:1;stroke-linejoin:miter;stroke-miterlimit:10;"/></g><!--link Visiteur to UC3--><g class="link" data-entity-1="ent0001" data-entity-2="ent0005" data-link-type="dependency" data-source-line="45" id="lnk15"><path d="M1117.67,85.8969 C1051.26,93.8069 891.98,115.9969 765,159.0969 C731.01,170.6269 699.0931,186.2892 671.9731,201.0292" fill="none" id="Visiteur-to-UC3" style="stroke:#475569;stroke-width:1;"/><polygon fill="#475569" points="667.58,203.4169,677.3977,202.6335,671.9731,201.0292,673.5774,195.6046,667.58,203.4169" style="stroke:#475569;stroke-width:1;stroke-linejoin:miter;stroke-miterlimit:10;"/></g><!--link Visiteur to UC4--><g class="link" data-entity-1="ent0001" data-entity-2="ent0006" data-link-type="dependency" data-source-line="46" id="lnk16"><path d="M1117.6,100.4369 C1071.28,126.9869 989.0182,174.1209 938.5682,203.0309" fill="none" id="Visiteur-to-UC4" style="stroke:#475569;stroke-width:1;"/><polygon fill="#475569" points="934.23,205.5169,944.0275,204.5127,938.5682,203.0309,940.05,197.5716,934.23,205.5169" style="stroke:#475569;stroke-width:1;stroke-linejoin:miter;stroke-miterlimit:10;"/></g><!--link Visiteur to UC5--><g class="link" data-entity-1="ent0001" data-entity-2="ent0007" data-link-type="dependency" data-source-line="47" id="lnk17"><path d="M1149,120.3069 C1149,147.0869 1149,177.1469 1149,199.8669" fill="none" id="Visiteur-to-UC5" style="stroke:#475569;stroke-width:1;"/><polygon fill="#475569" points="1149,204.8669,1153,195.8669,1149,199.8669,1145,195.8669,1149,204.8669" style="stroke:#475569;stroke-width:1;stroke-linejoin:miter;stroke-miterlimit:10;"/></g><!--link Visiteur to UC6--><g class="link" data-entity-1="ent0001" data-entity-2="ent0008" data-link-type="dependency" data-source-line="48" id="lnk18"><path d="M1180.28,100.8769 C1226.11,127.8769 1306.9721,175.5387 1355.4621,204.1087" fill="none" id="Visiteur-to-UC6" style="stroke:#475569;stroke-width:1;"/><polygon fill="#475569" points="1359.77,206.6469,1354.0464,198.6319,1355.4621,204.1087,1349.9853,205.5245,1359.77,206.6469" style="stroke:#475569;stroke-width:1;stroke-linejoin:miter;stroke-miterlimit:10;"/></g><!--link Visiteur to UC8--><g class="link" data-entity-1="ent0001" data-entity-2="ent0010" data-link-type="dependency" data-source-line="49" id="lnk19"><path d="M1180.4,83.5869 C1246.36,87.1069 1402.74,101.3869 1518,159.0969 C1545.47,172.8469 1567.5429,194.9668 1581.5029,210.7968" fill="none" id="Visiteur-to-UC8" style="stroke:#475569;stroke-width:1;"/><polygon fill="#475569" points="1584.81,214.5469,1581.8573,205.151,1581.5029,210.7968,1575.8572,210.4424,1584.81,214.5469" style="stroke:#475569;stroke-width:1;stroke-linejoin:miter;stroke-miterlimit:10;"/></g><!--link Visiteur to UC9--><g class="link" data-entity-1="ent0001" data-entity-2="ent0011" data-link-type="dependency" data-source-line="50" id="lnk20"><path d="M1180.13,82.1369 C1263.36,82.3169 1496.73,89.4869 1674,159.0969 C1702.26,170.1869 1726.5039,187.4362 1745.6839,203.1662" fill="none" id="Visiteur-to-UC9" style="stroke:#475569;stroke-width:1;"/><polygon fill="#475569" points="1749.55,206.3369,1745.1276,197.5368,1745.6839,203.1662,1740.0545,203.7225,1749.55,206.3369" style="stroke:#475569;stroke-width:1;stroke-linejoin:miter;stroke-miterlimit:10;"/></g><!--link Visiteur to UC10--><g class="link" data-entity-1="ent0001" data-entity-2="ent0012" data-link-type="dependency" data-source-line="51" id="lnk21"><path d="M1180.23,83.7169 C1301.81,88.9869 1743.31,111.0869 1874,159.0969 C1902.69,169.6269 1927.1985,186.9406 1946.5285,202.8406" fill="none" id="Visiteur-to-UC10" style="stroke:#475569;stroke-width:1;"/><polygon fill="#475569" points="1950.39,206.0169,1945.9803,197.2103,1946.5285,202.8406,1940.8983,203.3887,1950.39,206.0169" style="stroke:#475569;stroke-width:1;stroke-linejoin:miter;stroke-miterlimit:10;"/></g><!--link UC6 to UC7--><g class="link" data-entity-1="ent0008" data-entity-2="ent0009" data-link-type="dependency" data-source-line="53" id="lnk22"><path d="M1409.59,252.5369 C1423.25,275.2069 1441.6279,305.7052 1455.4379,328.6052" fill="none" id="UC6-to-UC7" style="stroke:#475569;stroke-width:1;stroke-dasharray:7,7;"/><polygon fill="#475569" points="1458.02,332.8869,1456.7976,323.1142,1455.4379,328.6052,1449.9469,327.2455,1458.02,332.8869" style="stroke:#475569;stroke-width:1;stroke-linejoin:miter;stroke-miterlimit:10;"/><text fill="#000000" font-family="sans-serif" font-size="13" lengthAdjust="spacing" textLength="63.0068" x="1439.55" y="298.9638">&#171;include&#187;</text></g><!--link UC8 to UC7--><g class="link" data-entity-1="ent0010" data-entity-2="ent0009" data-link-type="dependency" data-source-line="54" id="lnk23"><path d="M1582.73,243.4869 C1561.61,264.9669 1523.6255,303.5915 1497.8655,329.7915" fill="none" id="UC8-to-UC7" style="stroke:#475569;stroke-width:1;stroke-dasharray:7,7;"/><polygon fill="#475569" points="1494.36,333.3569,1503.5221,329.7436,1497.8655,329.7915,1497.8176,324.1349,1494.36,333.3569" style="stroke:#475569;stroke-width:1;stroke-linejoin:miter;stroke-miterlimit:10;"/><text fill="#000000" font-family="sans-serif" font-size="13" lengthAdjust="spacing" textLength="63.0068" x="1538.72" y="298.9638">&#171;include&#187;</text></g><?plantuml-src ZLBDRjf04BxxAKRq4798WW7pKqL8GErZLGKrfruMUp2hh7VH_WYrLQLUU-y3v1YUms_I9-bWR69Cg0eInj_CzpEpQvwut33DCbYo-2dLoibaheJIy2ugFfuvTh3OAhsmNmK2sw9H6TQA6wAp50zbZR5bCXNr1hDcYTfocSAA2LElE8CnCmZVFO3PMOeW6b8AgYYTe2xHVjGVX06XKwtLjWA7GJ0O4nWfQKki4_d3xhJ45lmRWj_pVZI7EbZN3NgzlXy4RmKAk-4ewbIAnRXB9P8JqUFyvyB7vEUJJkaRdGkVpEE7_gm_Ep5xOmMUvPRe7pXBgID3I11enP1SESi5Dyno9I79TvPn8V8T_Fdv6nwvuHQTXZQBu_p5mCOj1O-lFU-merRLq0AIgbuyxtNOrhHEXBPXqW1pTetIyXMF2zlhLh6Kwj1RSoMD4nOr24QtAAMmLnJ08HU5qUUvNs__n7IidERKZWPMIcU5glaYswJFX4eTLibBVlU27LORsEz5ugjOoUjTzbMhbQO7hTLOYlmFy_v_cXUA9ISuuUXyHmGd8LRPnkwzyb_M9Pn92yf1AAt6ZUO6Ayj1dVwOxpJjdXGC7JbBA3R1c97pFhMY4V9d642yviLCbSYmBhAWwwEaf8D6NTP79ndNT04E9oZedzk7Z1xW3iAFz3Dzg4J7Rv8Gx3f_oOej2aORlgEisL8V1_8xTE6zu_sykPaKjw81T9j0hmdqcq3G10PDODG4ncSvEfv7HBYztRyDuJtSttCP2vVWP4ALqONANm00?></g></svg>